<?xml version="1.0" encoding="UTF-8" standalone="no"?>
<svg
   xmlns:dc="http://purl.org/dc/elements/1.1/"
   xmlns:cc="http://creativecommons.org/ns#"
   xmlns:rdf="http://www.w3.org/1999/02/22-rdf-syntax-ns#"
   xmlns:svg="http://www.w3.org/2000/svg"
   xmlns="http://www.w3.org/2000/svg"
   xmlns:sodipodi="http://sodipodi.sourceforge.net/DTD/sodipodi-0.dtd"
   xmlns:inkscape="http://www.inkscape.org/namespaces/inkscape"
   width="0.81707013in"
   height="1.0416667in"
   viewBox="0 0 58.829011 75.000021"
   version="1.1"
   id="svg3"
   sodipodi:docname="alt-geo-logo.svg"
   inkscape:version="0.92.3 (unknown)">
  <metadata
     id="metadata9">
    <rdf:RDF>
      <cc:Work
         rdf:about="">
        <dc:format>image/svg+xml</dc:format>
        <dc:type
           rdf:resource="http://purl.org/dc/dcmitype/StillImage" />
        <dc:title></dc:title>
      </cc:Work>
    </rdf:RDF>
  </metadata>
  <defs
     id="defs7" />
  <sodipodi:namedview
     pagecolor="#ffffff"
     bordercolor="#666666"
     borderopacity="1"
     objecttolerance="10"
     gridtolerance="10"
     guidetolerance="10"
     inkscape:pageopacity="0"
     inkscape:pageshadow="2"
     inkscape:window-width="1366"
     inkscape:window-height="715"
     id="namedview5"
     showgrid="false"
     inkscape:zoom="0.27786505"
     inkscape:cx="-430.13824"
     inkscape:cy="424.90108"
     inkscape:window-x="0"
     inkscape:window-y="0"
     inkscape:window-maximized="1"
     inkscape:current-layer="svg3"
     fit-margin-top="0"
     fit-margin-left="0"
     fit-margin-right="0"
     fit-margin-bottom="0" />
  <path
     id="Selection #1"
     d="m 30.498636,1.0235953 c 0,0 0.978062,0.188542 0.978062,0.188542 0,0 -0.235678,-0.70703205 -0.235678,-0.70703205 0.966279,0.485497 1.099438,1.86657205 0.512599,2.71029805 -0.341732,0.490208 -0.730601,0.621005 -0.973348,1.183097 -0.474892,1.101799 -0.314631,1.554297 -0.235679,2.705582 0,0 0.75417,9.7806277 0.75417,9.7806277 0.05538,0.883799 -0.340555,1.464741 -0.328771,1.756979 0.01767,0.431295 0.503172,0.572701 0.565627,1.071159 0.07424,0.595086 -0.781272,1.780545 -0.694072,2.354426 0.07424,0.48431 0.524383,0.64692 0.87083,0.90146 0.390047,0.28635 0.776558,0.68229 1.018128,1.10415 0.573875,1.00281 0.395939,2.83638 0.395939,4.00652 0,0 1.414067,0 1.414067,0 0,0 0,3.06382 0,3.06382 0,0 -0.120196,0.872 -0.120196,0.872 0,0 -0.940355,0.18855 -0.940355,0.18855 0,0 -8.130884,0 -8.130884,0 0,0 0,-4.12437 0,-4.12437 0,0 1.414068,0 1.414068,0 0,-1.17014 -0.177937,-3.00371 0.395938,-4.00652 0.24157,-0.42068 0.628081,-0.81898 1.018128,-1.10415 0.308738,-0.22625 0.820159,-0.44307 0.920322,-0.8508 0.115482,-0.468997 -0.800126,-1.837106 -0.741207,-2.405086 0.05185,-0.489036 0.540881,-0.633976 0.564448,-1.071159 0.01767,-0.325236 -0.260423,-0.542061 -0.272207,-1.5213 0,0 0.215645,-3.299486 0.215645,-3.299486 0,0 0.266316,-4.0065277 0.266316,-4.0065277 0,0 0.235678,-2.592454 0.235678,-2.592454 0.0083,-0.686995 0.216823,-1.614391 0,-2.23894 -0.400653,-1.27384 -0.954495,-1.171311 -1.371645,-2.003261 -0.415971,-0.831941 -0.190899,-2.17648405 0.771845,-2.47461505 0,0 -0.353517,0.70703205 -0.353517,0.70703205 1.052301,-0.0034 1.17014,-0.1143 1.414067,-1.17838505 0,0 0.671682,0.98984305 0.671682,0.98984305 z m -1.614394,1.956125 c 0.325236,-0.789516 0.2345,-0.949781 -0.471355,-1.414065 -0.213289,0.5833 0.03653,1.022842 0.471355,1.414065 z m 2.121101,0 c 0.530275,-0.468995 0.571518,-0.729422 0.589194,-1.414065 -0.839012,0.417147 -0.864937,0.552665 -0.589194,1.414065 z m -1.767584,0.353518 c 0,0 1.414067,0 1.414067,0 0,0 0,-0.235674 0,-0.235674 -0.69525,-0.341733 -0.880257,-0.382977 -1.414067,0.235674 z M 25.113398,33.735674 c 0,0 0,34.76248 0,34.76248 0,0 -3.888683,0.35351 -3.888683,0.35351 0,0 0,-35.11599 0,-35.11599 0,0 3.888683,0 3.888683,0 z m 2.828133,0 c 0,0 0,34.64463 0,34.64463 0,0 -1.531905,0 -1.531905,0 0,0 0,-34.64463 0,-34.64463 0,0 1.531905,0 1.531905,0 z m 2.710295,0 c 0,0 0,34.64463 0,34.64463 0,0 -1.531906,0 -1.531906,0 0,0 0,-34.64463 0,-34.64463 0,0 1.531906,0 1.531906,0 z m 2.710295,0 c 0,0 0,34.64463 0,34.64463 0,0 -1.531906,0 -1.531906,0 0,0 0,-34.64463 0,-34.64463 0,0 1.531906,0 1.531906,0 z m 4.713556,0 c 0,0 0,35.11599 0,35.11599 0,0 -3.535167,-0.35351 -3.535167,-0.35351 0,0 0,-34.76248 0,-34.76248 0,0 3.535167,0 3.535167,0 z M 8.0267576,45.283884 c 0,0 0,2.35678 0,2.35678 0,0 3.8886844,0 3.8886844,0 0,0 0,23.09642 0,23.09642 0,0 -5.3027509,1.58141 -5.3027509,1.58141 0,0 -2.5924557,0.89321 -2.5924557,0.89321 0,0 0,-27.92782 0,-27.92782 0,0 4.0065222,0 4.0065222,0 z m 46.7820424,0 c 0,0 0,27.57431 0,27.57431 -1.057016,-0.19091 -5.728151,-2.05158 -7.895206,-2.35678 0,0 0,-22.86075 0,-22.86075 0,0 3.888683,0 3.888683,0 0,0 0,-2.35678 0,-2.35678 0,0 4.006523,0 4.006523,0 z m -51.9669536,2.35678 c 0,0 0,20.03261 0,20.03261 0,0 0,5.30275 0,5.30275 0,0 -0.1166605,0.74239 -0.1166605,0.74239 0,0 -0.8260506,0.46311 -0.8260506,0.46311 0,0 -1.88542236,0.79777 -1.88542236,0.79777 0,0 0,-27.33863 0,-27.33863 0,0 2.82813346,0 2.82813346,0 z m 55.9734766,0 c 0,0 0,26.86727 0,26.86727 0,0 -2.828133,-1.06055 -2.828133,-1.06055 0,0 0,-25.80672 0,-25.80672 0,0 2.828133,0 2.828133,0 z m -39.004675,8.48441 c 0,0 0,12.96227 0,12.96227 0,0 -3.653006,0.61276 -3.653006,0.61276 0,0 -2.828134,0.56563 -2.828134,0.56563 0,0 0,-14.14066 0,-14.14066 0,0 6.48114,0 6.48114,0 z m 25.688879,0 c 0,0 0,13.90498 0,13.90498 0,0 -4.006522,-0.70703 -4.006522,-0.70703 0,0 -1.81472,-0.35588 -1.81472,-0.35588 0,0 -0.188542,-0.94035 -0.188542,-0.94035 0,0 0,-11.90172 0,-11.90172 0,0 6.009784,0 6.009784,0 z"
     style="stroke:#000000;stroke-width:0.02742587"
     inkscape:connector-curvature="0" />
</svg>
