<?xml version="1.0" encoding="UTF-8" standalone="no"?>
<svg
   width="1.6666666in"
   height="2.1248007in"
   viewBox="0 0 119.99992 152.98568"
   version="1.1"
   id="svg3"
   sodipodi:docname="alt-geo-logo.svg"
   inkscape:version="0.92.3 (unknown)">
  <metadata
     id="metadata9">
    <rdf:RDF>
      <cc:Work
         rdf:about="">
        <dc:format>image/svg+xml</dc:format>
        <dc:type
           rdf:resource="http://purl.org/dc/dcmitype/StillImage" />
        <dc:title></dc:title>
      </cc:Work>
    </rdf:RDF>
  </metadata>
  <defs
     id="defs7" />
  <sodipodi:namedview
     pagecolor="#ffffff"
     bordercolor="#666666"
     borderopacity="1"
     objecttolerance="10"
     gridtolerance="10"
     guidetolerance="10"
     inkscape:pageopacity="0"
     inkscape:pageshadow="2"
     inkscape:window-width="1366"
     inkscape:window-height="715"
     id="namedview5"
     showgrid="false"
     inkscape:zoom="0.27786505"
     inkscape:cx="-430.13824"
     inkscape:cy="424.90108"
     inkscape:window-x="0"
     inkscape:window-y="0"
     inkscape:window-maximized="1"
     inkscape:current-layer="svg3" />
  <path
     id="Selection #1"
     d="m 62.211379,2.0879381 c 0,0 1.99506,0.38459 1.99506,0.38459 0,0 -0.480738,-1.44221 -0.480738,-1.44221 1.971024,0.99032 2.242642,3.80745 1.045604,5.52849 -0.697069,0.99993 -1.490286,1.26673 -1.985445,2.41329 -0.968687,2.2474599 -0.641785,3.1704699 -0.480739,5.5188699 0,0 1.538362,19.95061 1.538362,19.95061 0.112973,1.80278 -0.694667,2.98779 -0.67063,3.5839 0.03605,0.87976 1.026375,1.1682 1.153771,2.18496 0.151432,1.21386 -1.593645,3.63197 -1.415773,4.80257 0.151433,0.98791 1.069641,1.31961 1.776325,1.83881 0.795621,0.5841 1.584031,1.39174 2.076787,2.25226 1.170596,2.04554 0.80764,5.78568 0.80764,8.17254 0,0 2.884425,0 2.884425,0 0,0 0,6.24959 0,6.24959 0,0 -0.245176,1.77873 -0.245176,1.77873 0,0 -1.918144,0.38459 -1.918144,0.38459 0,0 -16.585447,0 -16.585447,0 0,0 0,-8.41291 0,-8.41291 0,0 2.884427,0 2.884427,0 0,-2.38686 -0.362957,-6.127 0.807639,-8.17254 0.492756,-0.85811 1.281165,-1.67056 2.076786,-2.25226 0.629766,-0.4615 1.672967,-0.90378 1.87728,-1.73546 0.235562,-0.95667 -1.632104,-3.74735 -1.51192,-4.90592 0.10576,-0.99754 1.103294,-1.29319 1.151367,-2.18496 0.03605,-0.66342 -0.531215,-1.1057 -0.555252,-3.10316 0,0 0.439875,-6.73032 0.439875,-6.73032 0,0 0.543233,-8.17255 0.543233,-8.17255 0,0 0.480739,-5.28811 0.480739,-5.28811 0.01683,-1.40134 0.442277,-3.29305 0,-4.56701 -0.817255,-2.5983899 -1.946988,-2.3892499 -2.797894,-4.0862699 -0.848501,-1.697 -0.389397,-4.43961 1.574416,-5.04774 0,0 -0.721106,1.44221 -0.721106,1.44221 2.146493,-0.007 2.386861,-0.23315 2.884425,-2.40367996 0,0 1.370103,2.01908996 1.370103,2.01908996 z m -3.293054,3.99012 c 0.663419,-1.61046 0.478335,-1.93737 -0.961474,-2.88442 -0.435068,1.18982 0.07452,2.0864 0.961474,2.88442 z m 4.326639,0 c 1.08166,-0.95666 1.165788,-1.48788 1.201844,-2.88442 -1.711425,0.8509 -1.764307,1.12733 -1.201844,2.88442 z m -3.605532,0.72111 c 0,0 2.884425,0 2.884425,0 0,0 0,-0.48073 0,-0.48073 -1.418176,-0.69707 -1.795554,-0.7812 -2.884425,0.48073 z M 51.226524,68.814318 c 0,0 0,70.908802 0,70.908802 0,0 -7.932169,0.7211 -7.932169,0.7211 0,0 0,-71.629902 0,-71.629902 0,0 7.932169,0 7.932169,0 z m 5.768851,0 c 0,0 0,70.668422 0,70.668422 0,0 -3.124794,0 -3.124794,0 0,0 0,-70.668422 0,-70.668422 0,0 3.124794,0 3.124794,0 z m 5.528482,0 c 0,0 0,70.668422 0,70.668422 0,0 -3.124794,0 -3.124794,0 0,0 0,-70.668422 0,-70.668422 0,0 3.124794,0 3.124794,0 z m 5.528483,0 c 0,0 0,70.668422 0,70.668422 0,0 -3.124795,0 -3.124795,0 0,0 0,-70.668422 0,-70.668422 0,0 3.124795,0 3.124795,0 z m 9.614752,0 c 0,0 0,71.629902 0,71.629902 0,0 -7.211064,-0.7211 -7.211064,-0.7211 0,0 0,-70.908802 0,-70.908802 0,0 7.211064,0 7.211064,0 z m -61.294043,23.55614 c 0,0 0,4.80738 0,4.80738 0,0 7.932171,0 7.932171,0 0,0 0,47.112282 0,47.112282 0,0 -10.816596,3.22576 -10.816596,3.22576 0,0 -5.2881133,1.82198 -5.2881133,1.82198 0,0 0,-56.967402 0,-56.967402 0,0 8.1725383,0 8.1725383,0 z m 95.426411,0 c 0,0 0,56.246302 0,56.246302 -2.15611,-0.3894 -11.68433,-4.18482 -16.104709,-4.80738 0,0 0,-46.631542 0,-46.631542 0,0 7.932169,0 7.932169,0 0,0 0,-4.80738 0,-4.80738 0,0 8.17254,0 8.17254,0 z M 5.7968227,97.177838 c 0,0 0,40.862692 0,40.862692 0,0 0,10.8166 0,10.8166 0,0 -0.2379651,1.51432 -0.2379651,1.51432 0,0 -1.6849852,0.94465 -1.6849852,0.94465 0,0 -3.84590063,1.6273 -3.84590063,1.6273 0,0 0,-55.765562 0,-55.765562 0,0 5.76885093,0 5.76885093,0 z m 114.1751773,0 c 0,0 0,54.804092 0,54.804092 0,0 -5.76885,-2.16332 -5.76885,-2.16332 0,0 0,-52.640772 0,-52.640772 0,0 5.76885,0 5.76885,0 z M 40.409929,114.4844 c 0,0 0,26.44056 0,26.44056 0,0 -7.451433,1.24992 -7.451433,1.24992 0,0 -5.768851,1.15377 -5.768851,1.15377 0,0 0,-28.84425 0,-28.84425 0,0 13.220284,0 13.220284,0 z m 52.400396,0 c 0,0 0,28.3635 0,28.3635 0,0 -8.172538,-1.4422 -8.172538,-1.4422 0,0 -3.70168,-0.72592 -3.70168,-0.72592 0,0 -0.38459,-1.91814 -0.38459,-1.91814 0,0 0,-24.27724 0,-24.27724 0,0 12.258808,0 12.258808,0 z"
     style="stroke:#000000;stroke-width:0.05594353"
     inkscape:connector-curvature="0" />
</svg>
