<?xml version="1.0" encoding="UTF-8" standalone="no"?>
<svg
   xmlns:dc="http://purl.org/dc/elements/1.1/"
   xmlns:cc="http://creativecommons.org/ns#"
   xmlns:rdf="http://www.w3.org/1999/02/22-rdf-syntax-ns#"
   xmlns:svg="http://www.w3.org/2000/svg"
   xmlns="http://www.w3.org/2000/svg"
   xmlns:sodipodi="http://sodipodi.sourceforge.net/DTD/sodipodi-0.dtd"
   xmlns:inkscape="http://www.inkscape.org/namespaces/inkscape"
   width="6.93056in"
   height="8.84722in"
   viewBox="0 0 499 637"
   version="1.1"
   id="svg3"
   sodipodi:docname="alt-geo-logo.svg"
   inkscape:version="0.92.3 (unknown)">
  <metadata
     id="metadata9">
    <rdf:RDF>
      <cc:Work
         rdf:about="">
        <dc:format>image/svg+xml</dc:format>
        <dc:type
           rdf:resource="http://purl.org/dc/dcmitype/StillImage" />
        <dc:title></dc:title>
      </cc:Work>
    </rdf:RDF>
  </metadata>
  <defs
     id="defs7" />
  <sodipodi:namedview
     pagecolor="#ffffff"
     bordercolor="#666666"
     borderopacity="1"
     objecttolerance="10"
     gridtolerance="10"
     guidetolerance="10"
     inkscape:pageopacity="0"
     inkscape:pageshadow="2"
     inkscape:window-width="640"
     inkscape:window-height="480"
     id="namedview5"
     showgrid="false"
     inkscape:zoom="0.27786505"
     inkscape:cx="332.66689"
     inkscape:cy="424.66658"
     inkscape:window-x="0"
     inkscape:window-y="0"
     inkscape:window-maximized="0"
     inkscape:current-layer="svg3" />
  <path
     id="Selection #1"
     fill="none"
     stroke="black"
     stroke-width="1"
     d="M 258.70,9.40            C 258.70,9.40 267.00,11.00 267.00,11.00              267.00,11.00 265.00,5.00 265.00,5.00              273.20,9.12 274.33,20.84 269.35,28.00              266.45,32.16 263.15,33.27 261.09,38.04              257.06,47.39 258.42,51.23 259.09,61.00              259.09,61.00 265.49,144.00 265.49,144.00              265.96,151.50 262.60,156.43 262.70,158.91              262.85,162.57 266.97,163.77 267.50,168.00              268.13,173.05 260.87,183.11 261.61,187.98              262.24,192.09 266.06,193.47 269.00,195.63              272.31,198.06 275.59,201.42 277.64,205.00              282.51,213.51 281.00,229.07 281.00,239.00              281.00,239.00 293.00,239.00 293.00,239.00              293.00,239.00 293.00,265.00 293.00,265.00              293.00,265.00 291.98,272.40 291.98,272.40              291.98,272.40 284.00,274.00 284.00,274.00              284.00,274.00 215.00,274.00 215.00,274.00              215.00,274.00 215.00,239.00 215.00,239.00              215.00,239.00 227.00,239.00 227.00,239.00              227.00,229.07 225.49,213.51 230.36,205.00              232.41,201.43 235.69,198.05 239.00,195.63              241.62,193.71 245.96,191.87 246.81,188.41              247.79,184.43 240.02,172.82 240.52,168.00              240.96,163.85 245.11,162.62 245.31,158.91              245.46,156.15 243.10,154.31 243.00,146.00              243.00,146.00 244.83,118.00 244.83,118.00              244.83,118.00 247.09,84.00 247.09,84.00              247.09,84.00 249.09,62.00 249.09,62.00              249.16,56.17 250.93,48.30 249.09,43.00              245.69,32.19 240.99,33.06 237.45,26.00              233.92,18.94 235.83,7.53 244.00,5.00              244.00,5.00 241.00,11.00 241.00,11.00              249.93,10.97 250.93,10.03 253.00,1.00              253.00,1.00 258.70,9.40 258.70,9.40 Z            M 245.00,26.00            C 247.76,19.30 246.99,17.94 241.00,14.00              239.19,18.95 241.31,22.68 245.00,26.00 Z            M 263.00,26.00            C 267.50,22.02 267.85,19.81 268.00,14.00              260.88,17.54 260.66,18.69 263.00,26.00 Z            M 248.00,29.00            C 248.00,29.00 260.00,29.00 260.00,29.00              260.00,29.00 260.00,27.00 260.00,27.00              254.10,24.10 252.53,23.75 248.00,29.00 Z            M 213.00,287.00            C 213.00,287.00 213.00,582.00 213.00,582.00              213.00,582.00 180.00,585.00 180.00,585.00              180.00,585.00 180.00,287.00 180.00,287.00              180.00,287.00 213.00,287.00 213.00,287.00 Z            M 237.00,287.00            C 237.00,287.00 237.00,581.00 237.00,581.00              237.00,581.00 224.00,581.00 224.00,581.00              224.00,581.00 224.00,287.00 224.00,287.00              224.00,287.00 237.00,287.00 237.00,287.00 Z            M 260.00,287.00            C 260.00,287.00 260.00,581.00 260.00,581.00              260.00,581.00 247.00,581.00 247.00,581.00              247.00,581.00 247.00,287.00 247.00,287.00              247.00,287.00 260.00,287.00 260.00,287.00 Z            M 283.00,287.00            C 283.00,287.00 283.00,581.00 283.00,581.00              283.00,581.00 270.00,581.00 270.00,581.00              270.00,581.00 270.00,287.00 270.00,287.00              270.00,287.00 283.00,287.00 283.00,287.00 Z            M 323.00,287.00            C 323.00,287.00 323.00,585.00 323.00,585.00              323.00,585.00 293.00,582.00 293.00,582.00              293.00,582.00 293.00,287.00 293.00,287.00              293.00,287.00 323.00,287.00 323.00,287.00 Z            M 68.00,385.00            C 68.00,385.00 68.00,405.00 68.00,405.00              68.00,405.00 101.00,405.00 101.00,405.00              101.00,405.00 101.00,601.00 101.00,601.00              101.00,601.00 56.00,614.42 56.00,614.42              56.00,614.42 34.00,622.00 34.00,622.00              34.00,622.00 34.00,385.00 34.00,385.00              34.00,385.00 68.00,385.00 68.00,385.00 Z            M 465.00,385.00            C 465.00,385.00 465.00,619.00 465.00,619.00              456.03,617.38 416.39,601.59 398.00,599.00              398.00,599.00 398.00,405.00 398.00,405.00              398.00,405.00 431.00,405.00 431.00,405.00              431.00,405.00 431.00,385.00 431.00,385.00              431.00,385.00 465.00,385.00 465.00,385.00 Z            M 24.00,405.00            C 24.00,405.00 24.00,575.00 24.00,575.00              24.00,575.00 24.00,620.00 24.00,620.00              24.00,620.00 23.01,626.30 23.01,626.30              23.01,626.30 16.00,630.23 16.00,630.23              16.00,630.23 0.00,637.00 0.00,637.00              0.00,637.00 0.00,405.00 0.00,405.00              0.00,405.00 24.00,405.00 24.00,405.00 Z            M 499.00,405.00            C 499.00,405.00 499.00,633.00 499.00,633.00              499.00,633.00 475.00,624.00 475.00,624.00              475.00,624.00 475.00,405.00 475.00,405.00              475.00,405.00 499.00,405.00 499.00,405.00 Z            M 168.00,477.00            C 168.00,477.00 168.00,587.00 168.00,587.00              168.00,587.00 137.00,592.20 137.00,592.20              137.00,592.20 113.00,597.00 113.00,597.00              113.00,597.00 113.00,477.00 113.00,477.00              113.00,477.00 168.00,477.00 168.00,477.00 Z            M 386.00,477.00            C 386.00,477.00 386.00,595.00 386.00,595.00              386.00,595.00 352.00,589.00 352.00,589.00              352.00,589.00 336.60,585.98 336.60,585.98              336.60,585.98 335.00,578.00 335.00,578.00              335.00,578.00 335.00,477.00 335.00,477.00              335.00,477.00 386.00,477.00 386.00,477.00 Z"
     style="fill:#062F4F;stroke:#000000;stroke-width:0.2327404" />
</svg>
