<?xml version="1.0" encoding="UTF-8" standalone="no"?>
<svg
   xmlns:dc="http://purl.org/dc/elements/1.1/"
   xmlns:cc="http://creativecommons.org/ns#"
   xmlns:rdf="http://www.w3.org/1999/02/22-rdf-syntax-ns#"
   xmlns:svg="http://www.w3.org/2000/svg"
   xmlns="http://www.w3.org/2000/svg"
   xmlns:sodipodi="http://sodipodi.sourceforge.net/DTD/sodipodi-0.dtd"
   xmlns:inkscape="http://www.inkscape.org/namespaces/inkscape"
   width="160"
   height="160"
   viewBox="0 0 160.00007 160"
   version="1.1"
   id="svg3"
   sodipodi:docname="faculty-path.svg"
   inkscape:version="0.92.3 (unknown)">
  <metadata
     id="metadata9">
    <rdf:RDF>
      <cc:Work
         rdf:about="">
        <dc:format>image/svg+xml</dc:format>
        <dc:type
           rdf:resource="http://purl.org/dc/dcmitype/StillImage" />
        <dc:title></dc:title>
      </cc:Work>
    </rdf:RDF>
  </metadata>
  <defs
     id="defs7" />
  <path
     id="Selection #1"
     d="m 80.790504,0.11636764 c 0,0 0,3.72384996 0,3.72384996 0,0 -1.861924,0 -1.861924,0 0,0 0,5.35303 0,5.35303 0.418933,-1.4686 2.194742,-4.7386 2.967441,-6.28399 0.274638,-0.54927 0.914668,-2.01087996 1.368518,-2.32740996 0.67029,-0.46781 2.74633,-0.0884 3.57722,0 0.40496,0.0442 0.88441,0.0582 1.1637,0.40497 0.47712,0.58882996 0.20015,2.84641996 0,3.55161996 0,0 -1.6385,-0.23274 -1.6385,-0.23274 0,0 0,3.25836 0,3.25836 0,0 -0.22343,3.2583704 -0.22343,3.2583704 0,0 -0.15593,3.2444 -0.15593,3.2444 0.21179,0.86114 0.80761,0.88441 1.55238,0.94493 0,0 0,3.72384 0,3.72384 0,0 -3.72385,-0.42591 -3.72385,-0.42591 0,0 -3.491106,-0.50505 -3.491106,-0.50505 0,0 0.23274,-3.25836 0.23274,-3.25836 0,0 1.629186,0 1.629186,0 0,0 0.46548,-4.6548104 0.46548,-4.6548104 0,0 -2.967442,5.5857704 -2.967442,5.5857704 0,0 -1.477902,2.09001 -1.477902,2.09001 0,0 -4.864274,0.47013 -4.864274,0.47013 0,0 0,-3.4911 0,-3.4911 0,0 1.396442,0 1.396442,0 0,0 0.23274,-4.6548104 0.23274,-4.6548104 0,0 0.232741,-3.02563 0.232741,-3.02563 0,0 0.23274,-2.79288 0.23274,-2.79288 0,0 -1.629183,-0.23274 -1.629183,-0.23274 0,0 0,-3.72384996 0,-3.72384996 0,0 6.982213,0 6.982213,0 z M 104.06455,1.7455476 c 0,0 -0.23275,1.86193 -0.23275,1.86193 -0.95889,-0.13499 -4.403441,-0.94726 -4.880561,-1.72694 -0.25834,-0.43755 -0.0861,-1.05663996 0,-1.53142996 0,0 5.113311,1.39643996 5.113311,1.39643996 z M 68.688002,0.58184764 c 0,0 0.465481,3.72384996 0.465481,3.72384996 -0.963545,0.52832 -2.050443,2.40421 -1.466264,3.4911 0.356092,0.66331 1.410407,1.40576 1.894507,2.3274104 0.381694,0.72848 0.893723,3.74246 0.9682,4.65481 1.705987,0.0605 1.580307,0.2979 2.094663,3.02562 0,0 -6.283991,1.1637 -6.283991,1.1637 0,0 -0.46548,-3.4911 -0.46548,-3.4911 1.405752,-0.79597 0.651673,-2.12027 0.46548,-3.49111 -0.900705,0.0419 -3.230437,0.18852 -3.544636,1.19629 -0.137317,0.43988 0.209466,1.96665 0.286271,2.54152 0.381694,-0.0698 0.916997,-0.20714 1.266107,0 0.698222,0.45385 0.821574,2.92089 0.828556,3.70988 0,0 -6.516731,1.62919 -6.516731,1.62919 0,0 -0.698221,-3.95659 -0.698221,-3.95659 0,0 1.629183,-0.46548 1.629183,-0.46548 0,0 -1.861924,-10.0078404 -1.861924,-10.0078404 0,0 -1.629183,0.46548 -1.629183,0.46548 0,0 -0.930961,-3.4911 -0.930961,-3.4911 1.806065,-0.79132 4.78747,-1.61057 6.749472,-1.62919 0,0 0.46548,3.49111 0.46548,3.49111 -0.363075,0.13499 -0.686584,0.18852 -0.90536,0.56323 -0.339801,0.58418 0.258342,2.70677 0.43988,3.39336 1.561688,-0.97053 1.80141,-2.79289 2.560144,-4.42207 0,0 -1.163702,0.23274 -1.163702,0.23274 0,0 -0.465481,-3.72385 -0.465481,-3.72385 0,0 5.81851,-0.93095996 5.81851,-0.93095996 z m 6.982213,0.93095996 c 0,0 0,0.46548 0,0.46548 0,0 1.163702,0 1.163702,0 0,0 -0.465481,9.0768804 -0.465481,9.0768804 0,0 0,2.09466 0,2.09466 0,0 -0.232741,3.02563 -0.232741,3.02563 -0.802954,-0.0628 -0.882086,-0.0698 -1.163702,0.69822 0,0 2.236636,-0.47014 2.236636,-0.47014 0,0 2.34835,-3.95193 2.34835,-3.95193 0,0 5.19011,-10.0078404 5.19011,-10.0078404 0,0 -0.23274,3.95659 -0.23274,3.95659 0,0 -0.23041,2.32741 -0.23041,2.32741 0,0 0,2.0946604 0,2.0946604 0,0 -0.23507,3.02562 -0.23507,3.02562 0,0 -0.23274,2.56015 -0.23274,2.56015 0,0 -1.1637,-0.23274 -1.1637,-0.23274 0.47013,1.1381 2.38559,1.10784 3.25836,0.46548 -2.10397,-0.97053 -1.17999,-1.65944 -1.1637,-5.12029 0,0 0.23274,-3.2583604 0.23274,-3.2583604 0,0 0.23274,-5.81852 0.23274,-5.81852 0,0 1.39644,0.23275 1.39644,0.23275 -0.34678,-0.99148 -1.59427,-1.27077 -2.41351,-0.70055 -0.37704,0.26532 -0.69357,0.98682 -0.90304,1.39877 0,0 -4.079935,8.1459104 -4.079935,8.1459104 -0.607453,1.16836 -1.487212,3.06519 -2.378607,3.95659 0,0 0.444534,-7.4477004 0.444534,-7.4477004 0,0 0.486427,-6.05125 0.486427,-6.05125 0,0 0.698222,0.23274 0.698222,0.23274 0,0 0.23274,-0.93096 0.23274,-0.93096 0,0 -3.025625,0.23274 -3.025625,0.23274 z m 24.205004,1.62919 c 0,0 -0.93096,3.72384 -0.93096,3.72384 0,0 -1.39645,-0.46548 -1.39645,-0.46548 -0.49341,1.48256 -1.70831,4.3871604 -1.62918,5.8185104 0,0 4.636191,-6.0512504 4.636191,-6.0512504 0,0 1.92011,-1.90614 1.92011,-1.90614 0,0 4.61524,1.44066 4.61524,1.44066 0,0 -1.1637,3.72385 -1.1637,3.72385 0,0 -1.39644,-0.46548 -1.39644,-0.46548 0,0 -3.02563,10.0078304 -3.02563,10.0078304 0,0 1.39644,0.46548 1.39644,0.46548 0,0 -0.93096,3.49111 -0.93096,3.49111 0,0 -4.654811,-1.55005 -4.654811,-1.55005 0,0 -1.58263,-0.84718 -1.58263,-0.84718 0,0 0.65167,-3.18854 0.65167,-3.18854 0,0 1.62918,0.23274 1.62918,0.23274 0,0 0.93097,-3.95659 0.93097,-3.95659 0,0 -3.58188,4.65481 -3.58188,4.65481 0,0 -1.78046,1.70133 -1.78046,1.70133 0,0 -1.85262,-0.20713 -1.85262,-0.20713 0,0 -3.72384,-0.79598 -3.72384,-0.79598 0,0 0.93096,-3.4911 0.93096,-3.4911 0,0 1.62918,0.23274 1.62918,0.23274 0,0 3.25837,-10.2405804 3.25837,-10.2405804 0,0 -1.39645,-0.46548 -1.39645,-0.46548 0,0 1.16371,-3.25837 1.16371,-3.25837 0,0 6.28399,1.39645 6.28399,1.39645 z m -34.911063,-0.69823 c 0,0 0,0.69823 0,0.69823 0,0 1.629183,0 1.629183,0 0,0 -1.908472,4.88754 -1.908472,4.88754 0,0 -1.179993,2.1598404 -1.179993,2.1598404 0,0 -2.497305,0.86579 -2.497305,0.86579 0,0 -1.396442,-6.7494704 -1.396442,-6.7494704 0.688911,-0.27696 0.679601,-0.23041 0.930961,-0.93096 0,0 -3.491106,0.93096 -3.491106,0.93096 0.598143,0.79132 1.233524,0.4585 2.094664,0.23274 0,0 0.826228,4.65481 0.826228,4.65481 0,0 1.733916,9.0768704 1.733916,9.0768704 -0.928634,0.10939 -1.135773,0.10939 -1.629183,0.93096 1.138101,-0.0954 2.823141,-0.18386 3.258366,-1.39644 0,0 -1.124136,-0.53763 -1.124136,-0.53763 0,0 -0.458499,-1.78977 -0.458499,-1.78977 0,0 -0.744769,-3.95659 -0.744769,-3.95659 0,0 4.189327,-0.84717 4.189327,-0.84717 0.577196,-0.0605 1.519795,-0.3305 2.06208,0 0.667965,0.27928 0.782008,1.11948 0.916997,1.77813 0,0 0.74477,4.42207 0.74477,4.42207 0,0 -1.396443,0 -1.396443,0 0.709859,0.99147 2.434465,0.37238 3.491106,0.23274 -0.560904,-0.7471 -0.723822,-0.66796 -1.629182,-0.69822 -0.03026,-1.38713 -0.384022,-3.26069 -0.642364,-4.65481 -0.130335,-0.7052 -0.267651,-1.47557 -1.012421,-1.7897704 -0.52832,-0.22576 -2.276201,0.1280004 -3.000024,0.1605904 0,0 3.025626,-7.9131804 3.025626,-7.9131804 0,0 -2.792885,0.23274 -2.792885,0.23274 z m 29.558033,0.93097 c 0.49341,0.82157 0.70055,0.82157 1.62918,0.93096 0,0 -1.55238,4.88755 -1.55238,4.88755 0,0 -2.86969,8.3786504 -2.86969,8.3786504 -0.81924,-0.17455 -0.93329,-0.25834 -1.62918,0.23274 0.73081,0.26998 2.27387,0.80063 3.01632,0.54927 0.79597,-0.26765 2.38093,-2.38559 3.00468,-3.10941 0,0 6.779721,-7.6804404 6.779721,-7.6804404 0,0 -2.71375,8.8441404 -2.71375,8.8441404 -0.865791,2.71375 -0.532981,3.12338 -2.639281,3.02562 0.66099,1.06363 2.097,1.36386 3.258371,1.62919 -0.25136,-0.70055 -0.24205,-0.654 -0.930961,-0.93096 0,0 4.189331,-13.2662104 4.189331,-13.2662104 0,0 1.1637,0.23274 1.1637,0.23274 -1.41972,-2.43213 -2.88366,-0.35609 -3.98685,0.93096 0,0 -8.348391,9.7751004 -8.348391,9.7751004 -0.16525,-1.62918 0.65865,-3.13967 1.1637,-4.65481 0,0 3.02562,-8.6113904 3.02562,-8.6113904 0,0 0.69822,0.23274 0.69822,0.23274 0,0 0.23274,-0.69822 0.23274,-0.69822 0,0 -3.4911,-0.69822 -3.4911,-0.69822 z M 57.849282,19.433818 c -0.409624,2.36697 -1.94571,2.69979 -3.823925,3.56326 -2.378607,1.09155 -3.372409,2.19009 -6.039614,0.86812 -1.051986,-0.52366 -1.668749,-2.21336 -2.138884,-3.26767 0,0 -3.695918,-8.14592 -3.695918,-8.14592 -0.386349,-0.93794 -0.321182,-1.39644 0,-2.3274 0.90536,-2.4065404 2.888309,-2.9022704 5.124944,-3.8169404 0.865794,-0.35377 2.099318,-0.96355 3.025625,-0.87045 2.641604,0.26998 3.123376,2.60436 3.956587,4.6873904 -0.67262,0.31187 -2.67186,1.34989 -3.330515,0.92165 -0.481773,-0.31187 -0.542285,-1.2381804 -1.349894,-1.3382604 -0.602798,-0.0768 -3.011661,1.0566404 -3.698246,1.3475704 0,0 3.956587,9.30962 3.956587,9.30962 0,0 4.189328,-1.86193 4.189328,-1.86193 0,0 -0.465481,-1.1637 -0.465481,-1.1637 0,0 3.258366,-1.1637 3.258366,-1.1637 0.470135,0.90536 1.21025,2.225 1.03104,3.25836 z M 50.06877,6.7424876 c -0.709858,0.0815 -3.609804,1.39877 -4.422068,1.77115 -0.530648,0.24438 -1.319638,0.56324 -1.699005,1.00777 -0.837865,0.9891504 -0.174555,2.1644904 0.269979,3.1629404 0,0 3.584202,7.91318 3.584202,7.91318 0.425915,0.88441 0.958891,2.48799 2.038806,2.66255 0.593488,0.0978 1.324293,-0.28627 1.857269,-0.53065 0.793644,-0.36075 3.81927,-1.63384 4.280096,-2.06208 0.921652,-0.85881 0.961218,-1.95735 -0.323509,-2.39723 0.09775,0.36308 0.246704,0.75641 0.174555,1.14043 -0.200157,1.0613 -2.953476,1.89916 -3.898402,2.31809 -0.856485,0.3817 -1.822357,1.15672 -2.562472,0.22111 0,0 -1.259125,-2.74867 -1.259125,-2.74867 0,0 -2.515924,-5.58577 -2.515924,-5.58577 -0.300235,-0.654 -1.261453,-2.39489 -1.119482,-3.01631 0.267652,-1.1823204 3.148978,-2.1365604 4.198637,-2.6276404 0.470136,-0.2211 1.084571,-0.57487 1.619874,-0.45152 0.693566,0.15827 1.198613,1.12879 1.638492,1.67341 0.258342,-1.33826 -0.283943,-2.62997 -1.861923,-2.45076 z M 29.85992,21.086278 c -0.670292,-0.11171 -1.978293,-1.86192 -1.796756,-2.54385 0.146627,-0.55858 1.508158,-1.55703 1.989931,-1.92709 0,0 5.58577,-4.02641 5.58577,-4.02641 0.570214,-0.3654 1.808392,-1.32895 2.485667,-1.1381 0.477118,0.13732 0.893723,0.84252 1.161375,1.23352 0.768043,1.13345 1.570997,2.25991 2.171468,3.49111 0,0 -3.025626,1.86192 -3.025626,1.86192 0,0 -1.163702,-1.86192 -1.163702,-1.86192 0,0 -3.025625,2.09466 -3.025625,2.09466 0.898378,0.83089 1.65013,1.88287 2.094664,3.02563 0.488755,-0.26765 1.254471,-0.81925 1.822357,-0.6284 0.223431,0.0745 3.160615,2.40421 0.737787,3.65402 0,0 1.163702,2.32741 1.163702,2.32741 2.732373,-1.93408 2.583419,-1.69435 2.094664,-3.49111 0.60978,-0.34213 2.166813,-1.43601 2.783575,-1.37549 0.958891,0.0954 2.774266,3.28862 3.267676,4.16838 -2.61833,1.57099 -4.843328,3.04191 -7.214953,4.9853 -0.563232,0.46315 -2.031824,1.88985 -2.753319,1.78511 -0.733132,-0.10706 -1.964329,-2.17146 -2.36697,-2.81383 0,0 1.163702,-0.93096 1.163702,-0.93096 0,0 -2.960458,-3.95659 -2.960458,-3.95659 0,0 -2.858052,-4.42206 -2.858052,-4.42206 -0.37704,0.20481 -0.910015,0.56556 -1.356877,0.48875 z m 7.617594,-7.70138 c -0.61909,-0.0815 -1.782792,0.81227 -2.30413,1.16138 -1.573325,1.05198 -4.191655,2.7859 -5.35303,4.18932 0,0 1.885198,-0.24205 1.885198,-0.24205 0,0 2.30413,3.03494 2.30413,3.03494 0,0 5.353029,8.14591 5.353029,8.14591 -0.616762,0.42824 -0.563232,0.42824 -0.465481,1.1637 0,0 2.792885,-2.05975 2.792885,-2.05975 0,0 4.422068,-3.06053 4.422068,-3.06053 0,0 -1.163702,-2.09467 -1.163702,-2.09467 0,0 -0.698221,0.23274 -0.698221,0.23274 0,0 0.930961,1.62919 0.930961,1.62919 0,0 -5.353029,3.4911 -5.353029,3.4911 0,0 -3.025625,-5.12029 -3.025625,-5.12029 0.78899,-0.33514 0.884413,-0.34445 1.163702,-1.1637 0,0 -1.822358,0.21179 -1.822358,0.21179 0,0 -1.431353,-1.60823 -1.431353,-1.60823 0,0 -2.5648,-3.95659 -2.5648,-3.95659 0,0 3.491107,-2.19009 3.491107,-2.19009 0,0 1.619873,-0.6796 1.619873,-0.6796 0,0 1.638492,1.00777 1.638492,1.00777 -0.167573,-0.70288 -0.560904,-1.97597 -1.419716,-2.09234 z m 81.263646,13.03114 c -0.0419,-0.51436 -0.009,-1.16371 0.22343,-1.62919 0.43057,-0.85881 3.86581,-3.97055 4.81772,-4.92246 0.96122,-0.96354 1.571,-1.75719 3.0908,-1.54306 1.14741,0.16059 2.17845,1.13577 3.02562,1.87821 0,0 5.38096,5.45311 5.38096,5.45311 0.7052,0.79132 1.79675,1.78512 2.12026,2.79056 0.67961,2.11793 -1.308,3.64937 -2.61367,4.95504 -1.74555,1.74555 -2.53687,3.31655 -5.12029,3.25604 -0.80295,-0.0209 -1.40575,-0.0791 -2.07372,-0.58185 0,0 -2.34835,-2.44145 -2.34835,-2.44145 -0.59116,1.45928 -0.0349,1.26378 -0.20248,2.09466 -0.20249,0.99846 -1.7153,2.14587 -2.5904,2.56015 -0.80528,-1.12414 -1.82003,-2.04579 -2.79289,-3.02563 -0.36773,-0.37005 -1.19396,-1.13577 -1.31731,-1.62918 -0.20481,-0.81925 1.48721,-2.5136 2.24827,-2.5136 0.47712,-0.002 0.82391,0.37937 1.16371,0.65168 1.01242,-2.57877 -2.79522,-2.60902 -3.01166,-5.35303 z m 11.39031,9.0024 c 0.92398,-0.21413 1.89451,-1.35455 2.56015,-2.02019 2.7347,-2.7347 4.31035,-3.49576 2.68116,-5.58577 -1.20094,-1.53841 -4.21492,-4.65248 -5.68584,-5.97677 -0.6028,-0.54229 -1.81538,-1.72927 -2.58109,-1.85029 -0.77503,-0.12335 -1.33361,0.37471 -1.86193,0.85881 0,0 -3.87513,3.80065 -3.87513,3.80065 -0.55857,0.59582 -1.22188,1.09155 -0.97983,2.00622 0.25136,0.95191 3.50041,3.76342 4.38948,4.65249 0,0 -2.79288,2.28551 -2.79288,2.28551 0,0 -2.09467,-0.19085 -2.09467,-0.19085 0.80063,1.11948 1.76883,2.1994 3.02563,2.79288 0,0 0.23274,-0.23274 0.23274,-0.23274 -0.10241,-0.32583 -0.30256,-0.82855 -0.25369,-1.1637 0.11172,-0.79132 1.96433,-2.40886 2.58109,-3.02562 0.90536,1.2661 2.90693,4.05433 4.65481,3.64937 z m -3.02562,-14.60912 c 0.59116,0.0861 2.52523,1.85727 3.02097,2.35766 0.41195,0.41428 1.0194,0.97053 0.85648,1.61987 -0.12335,0.49341 -0.94958,1.25913 -1.31731,1.62919 -0.62374,0.6284 -3.42128,3.52834 -3.95659,3.8309 -0.25368,0.0722 -0.41893,0.11637 -0.69822,0 -0.45151,-0.0652 -2.77194,-2.29714 -3.22345,-2.76495 -0.36308,-0.37704 -0.68193,-0.73546 -0.56091,-1.29869 0.13267,-0.61211 1.01708,-1.41972 1.45696,-1.86193 1.06828,-1.07758 2.49265,-2.68349 3.72384,-3.51205 0.16292,0.009 0.28628,-0.12568 0.69823,0 z m -100.048124,2.83478 c 0.08146,0.40729 -0.121025,0.77968 -0.262997,1.14275 1.968984,0.93097 4.619897,4.5175 6.749472,5.98841 0.937944,0.64702 1.128791,0.15594 1.861923,0.40032 0.858812,0.2886 2.031824,1.71995 2.560145,2.45541 -1.212578,0.86812 -2.194742,1.98295 -3.258366,3.02562 -0.388677,0.37937 -1.049659,1.11716 -1.629183,1.11716 -0.512029,0 -1.054314,-0.5516 -1.391788,-0.88907 -0.230413,-0.23041 -0.621416,-0.63771 -0.763388,-0.92631 -0.581851,-1.18465 0.884413,-1.26145 -0.637709,-2.56014 -0.4841,0.9007 -0.698221,1.10552 -1.361531,1.86192 -0.395659,0.45152 -0.991474,1.20327 -1.440663,1.55704 -0.733133,0.57486 -1.429026,0.57021 -2.318095,0.53297 -2.327404,-0.0954 -3.903056,-3.05355 -5.353029,-3.84022 -0.979837,-0.47711 -1.275418,0.54694 -2.327404,0 -0.535303,-0.32583 -1.552379,-1.32429 -1.552379,-1.97363 0.0023,-0.52367 0.626072,-1.22422 0.935617,-1.62919 1.005438,-1.31265 1.82003,-2.51127 3.176906,-3.4911 0,0 2.057425,2.15983 2.057425,2.15983 0,0 0.179211,1.75719 0.179211,1.75719 0,0 3.349134,3.29793 3.349134,3.29793 0.381694,-0.54927 1.661767,-2.02251 1.736243,-2.5392 0.100079,-0.69589 -1.038022,-1.46394 -1.50583,-1.90381 -0.42126,-0.39566 -1.105517,-1.15207 -1.626855,-1.34524 -0.588834,-0.21645 -0.942599,0.15128 -1.629183,-0.20016 0,0 -2.094664,-1.69202 -2.094664,-1.69202 0.698221,-1.47791 2.965113,-3.4306 4.189327,-4.65481 0.595816,0.42359 2.218016,1.64315 2.357661,2.34835 z m 99.582634,-0.90536 c -0.71916,0.002 -2.98605,2.3018 -3.21879,2.97908 -0.32817,0.94958 1.10551,2.38326 2.05509,2.05509 0.52832,-0.18153 1.66875,-1.38015 2.08536,-1.82235 0.66331,-0.70753 0.86114,-0.94726 1.17301,-1.86193 -0.47712,-0.35842 -1.54307,-1.35455 -2.09467,-1.34989 z m -104.034958,2.70211 c 0,0 1.282399,0 1.282399,0 0.460826,0.0838 1.547724,1.22887 1.975966,1.60824 0,0 2.560145,2.39257 2.560145,2.39257 0.386349,0.39101 1.1381,1.05199 1.161375,1.62918 0.03491,0.77503 -1.717625,2.42749 -2.25991,3.0233 -0.260669,0.28627 -0.651673,0.78667 -1.017075,0.92631 -0.742442,0.28627 -1.552379,-0.61444 -2.073717,-1.05897 -0.800627,-0.68193 -3.856509,-3.44456 -4.014772,-4.28708 -0.155937,-0.38402 -0.03026,-0.58883 0,-0.93096 -1.242834,0.014 -1.90149,1.29404 -2.50196,2.3274 1.033368,0.0186 1.235852,-0.64934 2.094664,-0.12567 0,0 3.956587,3.61678 3.956587,3.61678 0.665637,0.64469 1.477901,1.55703 2.520578,1.32429 0.698222,-0.15593 1.35455,-1.03569 1.803739,-1.55703 0,0 2.657895,-2.79288 2.657895,-2.79288 0,0 3.025625,3.02562 3.025625,3.02562 -0.539957,0.61211 -0.52832,0.58418 -0.465481,1.39644 1.042677,-0.74709 1.771155,-1.3848 2.327405,-2.56014 0,0 -1.629183,0.12335 -1.629183,0.12335 0,0 -3.258366,-2.91624 -3.258366,-2.91624 0,0 -2.560145,-2.33671 -2.560145,-2.33671 0,0 -3.956586,-3.94728 -3.956586,-3.94728 0,0 0.698221,-0.69822 0.698221,-0.69822 0,0 -0.232741,-0.23274 -0.232741,-0.23274 0,0 -2.094663,2.05044 -2.094663,2.05044 z m 53.206784,-1.5803 c 0,0 1.119482,1.85727 1.119482,1.85727 0,0 1.996912,4.42206 1.996912,4.42206 0,0 0,-6.51673 0,-6.51673 0,0 3.956589,0 3.956589,0 0,0 1.2568,0.2374 1.2568,0.2374 0,0 0.37238,1.39178 0.37238,1.39178 0,0 0,12.10251 0,12.10251 0,0 -5.26226,-0.2374 -5.26226,-0.2374 0,0 -1.219559,-2.09001 -1.219559,-2.09001 0,0 -2.129575,-4.42207 -2.129575,-4.42207 0,0 0,6.74948 0,6.74948 0,0 -5.120289,0 -5.120289,0 0,0 0,-13.73169 0,-13.73169 0,0 5.02952,0.2374 5.02952,0.2374 z m 58.725064,3.95193 c 0.38169,0.45152 0.8751,0.98449 0.7564,1.62918 -0.10706,0.57487 -0.80761,1.22189 -1.20559,1.62918 -0.67262,0.68426 -3.29561,3.4306 -3.95659,3.70523 -1.14741,0.47479 -2.55316,-1.52445 -3.2444,-2.30878 -0.35144,-0.39566 -0.77968,-0.81692 -0.63305,-1.39645 0.12335,-0.4934 0.94958,-1.25912 1.31731,-1.62918 0.93561,-0.9426 3.05122,-3.35611 3.95658,-3.91702 1.34524,-0.11637 2.21569,1.34524 3.00934,2.28784 z m -3.00934,3.95659 c 0,0 1.35921,-1.39645 1.35921,-1.39645 1.28938,-1.60591 -0.96122,-2.74633 -1.35921,-2.74633 -0.91234,0 -3.54696,2.7184 -3.2188,3.6773 0.11172,0.33281 1.0613,1.44764 1.35688,1.86192 0.88209,-0.41661 1.17068,-0.71917 1.86192,-1.39644 z m 13.49895,7.21495 c 0,0 -3.25837,1.86192 -3.25837,1.86192 0,0 -0.23274,-0.69822 -0.23274,-0.69822 0,0 -6.64241,7.68043 -6.64241,7.68043 -0.60745,0.93329 -0.19783,1.25913 -0.42824,1.79909 -0.22343,0.52366 -1.90382,1.44299 -2.4624,1.40342 -0.95889,-0.0698 -2.28085,-2.83012 -2.75332,-3.66799 -0.21644,-0.38169 -0.54926,-0.88906 -0.41195,-1.34756 0.22344,-0.75175 2.20173,-1.68039 2.92322,-1.9108 0,0 0.23274,0.69822 0.23274,0.69822 1.56402,-1.65479 0.53298,-1.36619 -0.46548,-3.72385 0,0 -1.39644,0.23274 -1.39644,0.23274 0,0 0.23274,0.93096 0.23274,0.93096 0,0 -3.02562,2.09467 -3.02562,2.09467 0,0 -2.59506,-3.49111 -2.59506,-3.49111 -0.35144,-0.41428 -0.97285,-0.99147 -0.88441,-1.58961 0.10008,-0.66564 1.97596,-1.96899 2.5485,-2.36697 1.75021,1.59194 2.1482,0.91699 4.42207,0.26532 0,0 7.21495,-2.12725 7.21495,-2.12725 -0.56555,-1.5291 0.98915,-1.94571 2.09467,-2.79288 1.58962,1.24283 3.76341,4.91547 4.88755,6.74947 z M 17.950594,34.329208 c 0,0 -0.258342,1.55238 -0.258342,1.55238 0,0 2.120265,1.51979 2.120265,1.51979 0,0 3.956587,2.46705 3.956587,2.46705 0,0 1.852613,0.88209 1.852613,0.88209 0,0 1.173012,-0.83554 1.173012,-0.83554 0,0 3.258366,1.62918 3.258366,1.62918 -0.567887,1.33826 -3.090793,5.18546 -4.189328,6.05125 0,0 -2.792884,-1.86192 -2.792884,-1.86192 0.730804,-1.73857 0.491082,-1.4267 -3.025626,-3.72385 0,0 3.104757,4.88755 3.104757,4.88755 0.365403,0.55625 1.410407,2.02019 1.564016,2.56015 0.251359,0.89372 -0.779681,2.66022 -1.21956,3.48645 -0.209466,0.39333 -0.41195,0.84019 -0.919325,0.87976 -0.437552,0.0326 -2.390244,-1.07992 -2.995369,-1.34059 0,0 0.698222,-1.62918 0.698222,-1.62918 0,0 -6.516732,-3.78901 -6.516732,-3.78901 -1.64082,-0.93562 -2.090009,-1.60591 -3.025625,-0.16758 0,0 -3.2583656,-1.62918 -3.2583656,-1.62918 0,0 3.0256256,-6.05125 3.0256256,-6.05125 0,0 3.258365,1.62918 3.258365,1.62918 0,0 -0.698221,1.62918 -0.698221,1.62918 0,0 4.189327,2.32741 4.189327,2.32741 0,0 -3.588857,-5.81851 -3.588857,-5.81851 -0.425915,-0.68426 -1.228869,-1.73392 -1.152065,-2.56015 0.07215,-0.7983 1.666422,-2.95347 2.180778,-3.72384 0,0 3.258366,1.62918 3.258366,1.62918 z m 122.654196,1.86192 c 0,0 -9.7751,2.6579 -9.7751,2.6579 -1.65013,0.47014 -3.01166,1.2568 -4.65481,0.60047 -0.19317,1.34757 0.46781,1.99691 1.62919,2.56014 0,0 -0.23274,-1.1637 -0.23274,-1.1637 0,0 4.42206,-1.39644 4.42206,-1.39644 0,0 1.93873,3.25837 1.93873,3.25837 0,0 0.6959,1.62918 0.6959,1.62918 0,0 -2.63463,3.4911 -2.63463,3.4911 0,0 -0.93096,-1.39644 -0.93096,-1.39644 0,0 -0.46548,0.23274 -0.46548,0.23274 0.30955,1.08225 0.72848,2.3949 1.86193,2.79289 0.14662,-1.89916 1.30567,-2.6067 2.49497,-3.95659 1.50583,-1.71297 5.50664,-6.52371 7.04738,-7.68043 0,0 0.69822,0.93096 0.69822,0.93096 0.13965,-1.49187 -1.22887,-3.25837 -2.3274,-4.18933 0,0 0.23274,1.62918 0.23274,1.62918 z m -125.165465,2.79289 c 0,0 6.235115,9.7751 6.235115,9.7751 0,0 -10.706059,-6.05125 -10.706059,-6.05125 0,0 0.232741,-1.39645 0.232741,-1.39645 -0.98682,0.87045 -1.3894606,1.74556 -1.6291826,3.02563 0,0 0.9309616,-1.1637 0.9309616,-1.1637 0,0 12.102501,6.98221 12.102501,6.98221 -0.337474,0.77502 -0.477118,0.9007 0,1.62918 1.15672,-2.0551 0.900705,-1.95502 -1.317311,-5.35303 0,0 -5.664902,-9.07687 -5.664902,-9.07687 0,0 10.473319,6.05125 10.473319,6.05125 0,0 -0.465481,1.39644 -0.465481,1.39644 1.280072,-0.014 1.82003,-1.21258 2.094664,-2.32741 0,0 -0.930962,0.69823 -0.930962,0.69823 0,0 -8.844135,-5.48802 -8.844135,-5.48802 -1.352222,-0.84485 -2.737028,-1.14974 -2.511269,-2.89064 -2.320422,1.18465 -0.921652,2.63928 0,4.18933 z m 30.672858,-2.56015 c 0,0 3.956587,0.23274 3.956587,0.23274 7.27081,0.0116 13.249911,-0.46315 19.550194,3.9659 2.704444,1.90149 4.068302,3.54697 5.855749,6.27468 1.019403,1.55238 1.675731,3.37241 0.660982,5.12029 -0.174555,-0.95889 -0.793644,-2.98606 -1.678058,-3.48179 -0.679602,-0.3817 -2.215689,0.0675 -2.97675,0.22343 -3.095447,0.64236 -5.164509,1.46161 -7.913174,3.02562 0,0 2.094664,0.37239 2.094664,0.37239 1.128791,0.30256 2.588073,1.10086 3.723847,1.23585 0,0 3.258365,0.14662 3.258365,0.14662 1.699005,-0.0372 1.817703,-0.54461 3.723847,0.3398 0,0 -0.737787,8.14592 -0.737787,8.14592 0,0 -0.891396,11.40428 -0.891396,11.40428 0,0 -1.629183,0.23274 -1.629183,0.23274 0,0 -0.930961,-1.1637 -0.930961,-1.1637 0,0 1.629182,-1.1637 1.629182,-1.1637 0,0 -2.094663,-0.73314 -2.094663,-0.73314 -1.699005,-0.42126 -3.425939,-0.19783 -5.120289,0 0.558577,-2.86503 0.875104,-0.56788 2.560144,-3.68893 -2.041133,1.699 -1.64082,0.91467 -2.457738,1.53608 -0.307218,0.23274 -0.693567,0.71684 -0.93329,1.02406 -0.328164,0.42126 -1.289381,1.61289 -1.128791,2.16216 0.151282,0.52367 1.475575,1.03337 1.959675,1.27309 1.338257,0.65866 4.754886,1.91545 5.58577,2.616 0,0 -3.025626,0.23274 -3.025626,0.23274 0,0 0.232741,-1.1637 0.232741,-1.1637 -1.491866,-0.27929 -3.998481,-1.55703 -5.35303,-2.3274 -0.34911,1.00544 -0.877431,3.37473 -1.629183,3.95658 0.128008,-1.51514 0.528321,-2.81383 1.163702,-4.18932 -2.604365,-0.75874 -6.889116,-4.0171 -9.076875,-5.74171 -0.570214,-0.44919 -2.371625,-2.52291 -3.041918,-2.18078 -0.535303,0.27231 -1.103189,1.77116 -1.345239,2.33672 -0.863467,2.01087 -1.594272,4.12648 -1.978294,6.28399 -0.130334,0.67029 -0.409623,1.88985 0,2.46937 0.428243,0.58418 1.985276,1.20793 2.706771,1.29171 1.021731,0.1187 1.631511,-0.25601 2.262237,0.68659 0,0 -1.163702,0 -1.163702,0 -0.85183,-0.0233 -2.653241,0.2211 -3.258366,0 -0.772698,-0.16059 -2.313439,-1.24516 -3.025625,-1.73625 -3.425939,-2.35533 -5.508965,-5.03883 -7.266155,-8.76267 -2.215689,-4.69205 -2.043461,-9.18394 -2.043461,-14.19717 0,0 0,-16.05909 0,-16.05909 0,0 9.775097,0 9.775097,0 z m 32.76054,13.73169 c 0.158263,-0.93329 0.861139,-2.20173 1.361531,-3.02563 2.441445,-4.00779 5.632315,-6.61215 9.865865,-8.52295 4.46629,-2.01786 8.08075,-1.71762 12.800721,-1.71762 0,0 16.05909,0 16.05909,0 0,0 0.23274,3.25836 0.23274,3.25836 0,0 0,12.1025 0,12.1025 0,0 0.23274,3.49111 0.23274,3.49111 0.0559,5.33441 -0.79132,10.24756 -3.99382,14.66264 -1.58962,2.19242 -5.43216,6.03962 -8.10868,6.71922 -0.73546,0.18619 -2.32042,0.0768 -3.02562,-0.20248 0.81691,-0.36075 2.80452,-1.00079 3.25138,-1.71996 0.42824,-0.68658 -0.0745,-2.60902 -0.25369,-3.40033 -1.17999,-5.19244 -2.38326,-6.22348 -2.99769,-8.37866 0,0 -3.25837,2.68583 -3.25837,2.68583 0,0 -5.120291,3.67497 -5.120291,3.67497 0,0 -3.44456,2.33904 -3.44456,2.33904 0,0 0.65168,3.86814 0.65168,3.86814 -0.82623,-0.63771 -1.16138,-2.68582 -1.39645,-3.72384 0,0 -5.3507,2.19707 -5.3507,2.19707 -1.26843,0.57254 -1.78046,1.18232 -3.26069,0.59581 0,0 1.1637,-0.46548 1.1637,-0.46548 -2.827795,-0.0721 -1.27309,-1.04966 -3.956586,-1.62918 0,0 -0.677275,-8.37866 -0.677275,-8.37866 0,0 -0.486427,-6.51673 -0.486427,-6.51673 0,0 0.930961,0.46548 0.930961,0.46548 0,0 -0.930961,-3.02562 -0.930961,-3.02562 0.647018,0.48177 0.612107,0.76339 1.077588,1.34989 0,0 0.970527,1.06363 0.970527,1.06363 0.937943,1.43135 0.916998,3.73315 0.279289,5.26691 0.60047,0.17921 1.668744,0.63538 2.236634,0.27696 0.3817,-0.23739 2.06674,-3.34215 2.49731,-4.00081 0,0 3.47714,-4.6548 3.47714,-4.6548 0,0 2.72771,-3.25837 2.72771,-3.25837 0,0 -2.3274,-0.92863 -2.3274,-0.92863 -1.88752,-0.78434 -3.80996,-1.50118 -5.81851,-1.93408 -0.85183,-0.14895 -2.446101,-0.59348 -3.167596,0 -1.084571,0.83554 -1.550051,3.49111 -2.24129,4.72463 0.007,-1.08689 -0.300235,-2.17612 0,-3.25836 z m 62.197547,-13.2662 c -0.41661,1.68504 -2.29017,3.35378 -3.45387,4.6548 -0.86346,0.9682 -1.14508,1.51747 -2.36464,2.09467 0,0 -2.56014,-4.42207 -2.56014,-4.42207 0,0 8.37865,-2.3274 8.37865,-2.3274 z m -97.518232,0.93096 c 0,0 -0.276961,0.23274 -0.276961,0.23274 0.01396,0.43755 -0.197829,1.15672 0,1.53841 0.195502,0.59582 1.340585,0.93096 1.906144,1.16138 0,0 3.025626,1.37316 3.025626,1.37316 1.175339,0.40963 1.363858,0.0116 2.327404,1.04734 0,0 4.887548,-3.18389 4.887548,-3.18389 0,0 3.025625,-1.9364 3.025625,-1.9364 0,0 -14.895386,-0.23274 -14.895386,-0.23274 z m 20.481156,1.36386 c -1.051986,-0.37239 -3.346807,-1.0101 -4.422067,-0.80529 -2.12492,0.4073 -6.391052,3.6517 -8.378655,4.79446 0,0 0,0.46548 0,0.46548 2.010877,0.86579 4.07063,2.14586 5.81851,3.46783 0,0 2.094664,1.60358 2.094664,1.60358 0.907687,0.56323 2.723062,1.09854 3.025625,2.14354 1.531432,0.66098 2.685824,-0.3398 4.189327,-0.96355 2.287839,-0.94958 5.434489,-2.00855 7.913174,-2.06208 -1.189303,-3.73315 -6.644738,-7.36623 -10.240578,-8.64397 z m 32.118175,-0.7983 c -1.0194,-0.17689 -3.64471,0.5865 -4.65481,0.97285 -4.04502,1.54772 -8.04583,4.23588 -10.007834,8.23668 0,0 7.447694,1.96666 7.447694,1.96666 0,0 3.95659,1.53143 3.95659,1.53143 0,0 3.25836,-2.30646 3.25836,-2.30646 0,0 5.585771,-3.74013 5.585771,-3.74013 0,0 2.79289,-1.87356 2.79289,-1.87356 -1.7828,-1.18931 -6.412001,-4.45 -8.378661,-4.78747 z m 12.567981,-0.10008 c 0,0 -7.21495,0 -7.21495,0 -1.09621,0 -2.734701,-0.16059 -3.723851,0.23274 0,0 4.887551,2.9302 4.887551,2.9302 0,0 2.56015,1.45928 2.56015,1.45928 0,0 2.09466,-0.84019 2.09466,-0.84019 0,0 3.49111,-1.45463 3.49111,-1.45463 -0.15128,-1.60125 -0.30024,-2.29715 -2.09467,-2.3274 z m 26.29967,1.62918 c 0,0 0.46548,0.93096 0.46548,0.93096 0,0 1.86192,-1.62918 1.86192,-1.62918 0,0 -2.3274,0.69822 -2.3274,0.69822 z m -92.218733,1.66875 c 0.272306,1.15905 -0.335146,2.46705 -1.342912,2.98606 0,0 0.23274,-2.32741 0.23274,-2.32741 0,0 -1.163702,-0.23274 -1.163702,-0.23274 0,0 0.465481,-0.93096 0.465481,-0.93096 0,0 -0.749424,-0.23274 -0.749424,-0.23274 0,0 0,2.56015 0,2.56015 0,0 2.844088,6.98221 2.844088,6.98221 0,0 3.258365,-3.25837 3.258365,-3.25837 0,0 1.198613,-1.58961 1.198613,-1.58961 0,0 -0.500392,-1.20327 -0.500392,-1.20327 0,0 -0.698221,0.23274 -0.698221,0.23274 0,0 -0.698221,-2.09467 -0.698221,-2.09467 0,0 2.094664,0.23275 2.094664,0.23275 -0.826229,-1.10552 -3.986843,-2.03648 -5.35303,-2.79289 -0.165245,0.94725 0.232741,0.89605 0.411951,1.66875 z m 72.154183,0.30954 c -0.92398,0.35144 -2.6416,-0.95656 -4.14045,-0.78433 -1.18,0.13732 -4.00779,1.66409 -5.12029,2.29715 0,0 3.25836,3.25836 3.25836,3.25836 0,0 3.49111,3.49111 3.49111,3.49111 1.60125,-2.66721 3.26535,-6.50742 3.95659,-9.54236 -0.37472,0.32118 -1.08923,1.14741 -1.44532,1.28007 z m -95.141953,-0.11637 c 0,0 0.23274,0.23274 0.23274,0.23274 0,0 0,-0.23274 0,-0.23274 0,0 -0.23274,0 -0.23274,0 z m 94.434423,5.81851 c 0,0 -1.24284,3.02563 -1.24284,3.02563 0,0 1.59893,2.79288 1.59893,2.79288 0,0 3.42594,5.35303 3.42594,5.35303 0,0 0,-8.37865 0,-8.37865 -0.005,-2.77892 -0.73546,-2.16914 -0.89605,-3.72385 0,0 0.12801,-1.86192 0.12801,-1.86192 -0.007,-0.52599 -0.39101,-2.56713 -0.6284,-3.02563 0,0 -2.38559,5.81851 -2.38559,5.81851 z m -36.209755,-0.69822 c 0,0 0.621416,8.90931 0.621416,8.90931 0,0 0.481773,7.38252 0.481773,7.38252 0,0 0.293253,5.12029 0.293253,5.12029 0,0 0.658655,6.98221 0.658655,6.98221 0,0 9.309617,0.93096 9.309617,0.93096 0,0 2.09466,0 2.09466,0 0,0 11.637021,1.12414 11.637021,1.12414 0,0 5.58577,0.4841 5.58577,0.4841 0,0 3.49111,0.48643 3.49111,0.48643 -1.60824,0.45617 -6.68198,0.5865 -8.6114,0.71917 0,0 -5.120281,0.45384 -5.120281,0.45384 0,0 -2.09467,0 -2.09467,0 0,0 -7.44769,0.6796 -7.44769,0.6796 0,0 -6.28399,0.46548 -6.28399,0.46548 -0.777355,0.0349 -1.815377,-0.14895 -2.343698,0.54694 -0.507374,0.67029 -0.414278,1.92244 -0.470136,2.72074 0,0 -0.46548,5.12029 -0.46548,5.12029 0,0 -0.404969,3.4911 -0.404969,3.4911 0,0 -0.525993,7.680442 -0.525993,7.680442 0,0 -0.656328,6.98221 -0.656328,6.98221 0,0 -0.42126,5.58577 -0.42126,5.58577 -0.11637,0.98914 0.09542,1.4779 -0.530648,2.3274 0,0 -0.232741,-3.4911 -0.232741,-3.4911 0,0 -0.444534,-6.74948 -0.444534,-6.74948 0,0 -0.740114,-13.033462 -0.740114,-13.033462 0,0 -0.444535,-6.28399 -0.444535,-6.28399 0,0 -0.23274,-4.65481 -0.23274,-4.65481 0,0 -5.81851,-0.45617 -5.81851,-0.45617 0,0 -2.094664,0 -2.094664,0 0,0 -3.956587,-0.47479 -3.956587,-0.47479 0,0 -2.560144,0 -2.560144,0 0,0 -4.887549,-0.46548 -4.887549,-0.46548 0,0 -7.447693,-0.46548 -7.447693,-0.46548 -1.189303,-0.007 -4.596623,-0.24205 -5.58577,-0.69822 0,0 4.422068,-0.42592 4.422068,-0.42592 0,0 8.145914,-0.69822 8.145914,-0.69822 0,0 11.637021,-0.93096 11.637021,-0.93096 0,0 5.81851,-0.46548 5.81851,-0.46548 0,0 2.18776,-0.44454 2.18776,-0.44454 0,0 0.393331,-2.38791 0.393331,-2.38791 0,0 0.4841,-5.58577 0.4841,-5.58577 0,0 1.163702,-13.96443 1.163702,-13.96443 0,0 0.465481,-5.58577 0.465481,-5.58577 0,0 0.425915,-5.12028 0.425915,-5.12028 0,0 0.505047,4.18932 0.505047,4.18932 z m -39.726461,-1.85727 c -0.835538,1.38248 -0.807609,1.14043 -0.809936,2.78823 0,0 0,6.98222 0,6.98222 0,0 0.23274,3.95658 0.23274,3.95658 0.872777,-0.5609 1.10319,-1.43368 1.57798,-2.3274 0,0 2.180778,-3.49111 2.180778,-3.49111 0.465481,-0.64702 1.252143,-1.49419 1.21956,-2.3274 -0.0256,-0.63305 -0.884414,-2.15052 -1.193959,-2.79289 0,0 -1.689695,-4.18932 -1.689695,-4.18932 -1.177667,0.26998 -0.942599,0.44686 -1.517468,1.40109 z m 68.802716,13.95977 c 0,0 3.2351,-4.88754 3.2351,-4.88754 0.50039,-0.83089 1.70831,-2.51826 1.46859,-3.49111 -0.2118,-0.86347 -1.75254,-2.37628 -2.39956,-3.02563 -0.78899,-0.79131 -3.20949,-3.3212 -4.18932,-3.55627 -0.92398,-0.2211 -2.7091,0.98449 -3.49111,1.47325 -2.332061,1.45928 -6.763431,4.20096 -8.378651,6.27235 2.35533,1.32429 5.60671,4.01245 7.380191,6.05125 0.98682,1.13345 2.65325,3.8216 3.79135,4.42207 0,0 2.58341,-3.25837 2.58341,-3.25837 z M 50.766991,44.104308 c 0.602798,0.86114 2.30413,1.84796 3.16527,2.5392 0,0 0.90536,1.03569 0.90536,1.03569 0.91467,0.84019 2.397226,1.29869 3.609803,1.31266 -1.328947,-1.76883 -5.481036,-4.4756 -7.680433,-4.88755 z m -3.491106,2.79288 c 0,0 0.930962,0 0.930962,0 0,0 -0.232741,-0.69822 -0.232741,-0.69822 0,0 -0.698221,0.69822 -0.698221,0.69822 z m 101.242075,-0.69822 c 0.87045,1.57333 2.16682,4.51982 2.32741,6.28399 0,0 -3.25837,0.93096 -3.25837,0.93096 0,0 -0.23274,-1.1637 -0.23274,-1.1637 0,0 -2.79288,0.69822 -2.79288,0.69822 0.76571,2.1226 1.46626,1.90149 3.72384,2.32741 0.44919,-1.31964 2.01553,-1.45463 3.25837,-1.62919 0,0 1.62918,6.05126 1.62918,6.05126 0,0 -3.25836,1.1637 -3.25836,1.1637 0,0 -0.81692,-1.6897 -0.81692,-1.6897 0,0 -3.13967,-0.87045 -3.13967,-0.87045 -0.33515,0.77968 -0.90769,2.10863 -1.5198,2.67419 -0.654,0.60512 -3.79599,1.55005 -4.76419,1.74788 0,0 0.23274,1.62918 0.23274,1.62918 0,0 -2.56015,0.93096 -2.56015,0.93096 0,0 3.02563,-0.23274 3.02563,-0.23274 0,0 0.93096,7.21496 0.93096,7.21496 0,0 1.14508,0 1.14508,0 0,0 0,-1.86193 0,-1.86193 -0.13266,-1.16603 -0.67262,-3.14432 -0.24903,-4.18932 0.22576,-0.5516 0.67728,-1.11018 1.20792,-1.39179 0.66331,-0.35144 2.67419,-0.43988 3.4818,-0.47945 0,0 3.72385,-0.45617 3.72385,-0.45617 0,0 -0.23274,-1.1637 -0.23274,-1.1637 0,0 3.4911,-0.23274 3.4911,-0.23274 0,0 0.93096,6.28399 0.93096,6.28399 0,0 -3.4911,0.23274 -3.4911,0.23274 0,0 0,-0.93096 0,-0.93096 0,0 -5.35303,0.23274 -5.35303,0.23274 0,0 0.23274,3.49111 0.23274,3.49111 0,0 4.8154,-0.47014 4.8154,-0.47014 0,0 0.53763,-1.15905 0.53763,-1.15905 0,0 3.4911,-0.23274 3.4911,-0.23274 0,0 0.23275,6.28399 0.23275,6.28399 0,0 -3.49111,0.23274 -3.49111,0.23274 0,0 0,-1.1637 0,-1.1637 0,0 -9.30962,0.6959 -9.30962,0.6959 -1.46626,0.0535 -2.3786,0.4841 -3.71453,-0.39566 -1.36386,-0.90071 -1.09388,-1.44299 -1.19396,-2.86038 0,0 -0.24205,-1.86193 -0.24205,-1.86193 -0.61211,-4.40577 -1.35688,-7.42209 -2.76263,-11.63702 0,0 3.72385,-1.39644 3.72385,-1.39644 0,0 0.23274,1.1637 0.23274,1.1637 0,0 3.25836,-0.93096 3.25836,-0.93096 0,0 -1.1637,-3.72384 -1.1637,-3.72384 0,0 -3.25837,1.1637 -3.25837,1.1637 0,0 0.46548,1.39644 0.46548,1.39644 0,0 -3.72384,1.1637 -3.72384,1.1637 0,0 -1.56402,-4.18933 -1.56402,-4.18933 0,0 -0.2723,-1.77115 -0.2723,-1.77115 0,0 3.00002,-1.48721 3.00002,-1.48721 0,0 0.69822,1.39644 0.69822,1.39644 0,0 9.7751,-3.4911 9.7751,-3.4911 0,0 -0.46548,-1.16371 -0.46548,-1.16371 0,0 3.25836,-1.1637 3.25836,-1.1637 z m -101.474816,0.69822 c 0,0 0.232741,0.23274 0.232741,0.23274 0,0 0,-0.23274 0,-0.23274 0,0 -0.232741,0 -0.232741,0 z m -3.256038,3.95659 c -0.172228,0.93329 1.903817,4.10787 2.557817,4.88755 0,0 0,-3.02563 0,-3.02563 0,0 -0.698221,-0.93096 -0.698221,-0.93096 0,0 2.094664,-1.39644 2.094664,-1.39644 0,0 -1.396443,-0.69822 -1.396443,-0.69822 0.495737,-1.12647 0.751752,-1.29637 0.698221,-2.56015 -0.854157,0.61211 -3.069845,2.70445 -3.256038,3.72385 z m -29.311327,12.56798 c -0.36773,1.11716 -1.587289,2.21336 -2.809176,2.25526 -0.763389,0.0233 -2.0248416,-0.52367 -2.7928846,-0.75874 -1.182322,-0.36075 -4.73394,-1.308 -5.490347,-2.05975 -0.449189,-0.44686 -0.821573,-1.3755 -0.937943,-1.99691 -0.269979,-1.4267 1.184648,-5.67887 1.696677,-7.21496 0.698221,-2.10164 1.161375,-5.04348 3.33517,-6.09314 1.715297,-0.82623 3.2164726,0.0279 4.8875486,0.58418 0.903033,0.30023 3.791341,1.07759 4.359228,1.51514 0.416605,0.32118 0.605125,0.72848 0.800627,1.20094 0.775025,1.88752 -0.09542,3.64239 -0.970528,5.35303 0,0 1.396443,0.46548 1.396443,0.46548 0.449189,-1.66642 1.098534,-1.38248 2.560144,-0.93096 0.435225,0.13499 1.058969,0.27696 1.214905,0.76804 0.148954,0.47014 -0.279289,1.5454 -0.439879,2.02484 0,0 -1.473247,4.42207 -1.473247,4.42207 -0.754079,-0.17223 -3.058209,-0.69124 -3.283967,-1.45928 -0.130335,-0.3142 -0.02095,-0.78201 0,-1.10086 -1.840977,-0.0326 -1.573325,1.57099 -2.052771,3.02562 z M 148.05248,49.690078 c 0,0 -8.61139,2.72073 -8.61139,2.72073 0,0 -3.93564,1.21258 -3.93564,1.21258 0,0 -1.65013,-0.67495 -1.65013,-0.67495 0.21179,1.13345 0.59814,2.41352 1.62918,3.02563 0,0 -0.23274,-1.39644 -0.23274,-1.39644 0,0 6.05125,-2.09467 6.05125,-2.09467 0,0 1.58264,4.42207 1.58264,4.42207 0,0 0.20481,1.83167 0.20481,1.83167 0,0 -1.55471,1.09388 -1.55471,1.09388 0,0 -4.18933,1.26378 -4.18933,1.26378 0,0 -0.69822,-0.93096 -0.69822,-0.93096 0,0 0.69822,3.4911 0.69822,3.4911 1.12181,-0.77502 0.13034,-1.34291 1.20094,-1.94338 1.45929,-0.82157 5.72076,-1.00777 5.64629,-3.17691 -0.0186,-0.50737 -0.37472,-1.37549 -0.56324,-1.86192 0,0 6.49579,1.32197 6.49579,1.32197 0,0 1.41739,0.77269 1.41739,0.77269 -0.0931,-1.04267 -0.25369,-2.40188 -1.1637,-3.02562 0,0 0,1.39644 0,1.39644 0,0 -6.98222,-1.39644 -6.98222,-1.39644 0,0 -1.1637,-3.72385 -1.1637,-3.72385 0,0 6.05125,-1.86192 6.05125,-1.86192 0,0 0.69822,0.93096 0.69822,0.93096 -0.13266,-1.28705 -0.43755,-1.962 -1.1637,-3.02563 0,0 0.23274,1.62919 0.23274,1.62919 z m -131.53324,2.1063 c -0.237395,-0.91234 -0.78899,-1.05199 -1.594272,-1.33128 0,0 -4.654808,-1.47324 -4.654808,-1.47324 -0.8308826,-0.27231 -1.6780576,-0.61211 -2.5089406,-0.12568 -0.782008,0.4585 -1.161375,1.85959 -1.447646,2.68582 0,0 -2.059752,6.28399 -2.059752,6.28399 -0.176883,0.64237 -0.660983,2.19474 -0.539958,2.78358 0.183865,0.88441 0.91467,1.14043 1.668749,1.40575 0,0 5.1202886,1.65246 5.1202886,1.65246 0.677274,0.17921 1.601254,0.51435 2.227325,0 0.516684,-0.37239 0.667965,-1.28008 0.833211,-1.8852 0,0 1.128791,-3.72385 1.128791,-3.72385 0,0 4.189327,1.39644 4.189327,1.39644 0,0 -0.23274,1.39645 -0.23274,1.39645 0.947253,-0.63771 1.282399,-2.3949 1.396442,-3.49111 0,0 -0.930961,1.1637 -0.930961,1.1637 0,0 -4.189328,-1.1637 -4.189328,-1.1637 0.365403,-1.35688 1.901489,-4.38948 1.594272,-5.57413 z m -7.8782626,3.61446 c -0.542285,-0.16059 -2.015532,-0.54694 -2.271546,-0.99613 -0.335146,-0.42359 -0.102406,-1.0357 0,-1.46627 0.36773,-0.93096 0.95889,-3.03726 1.831667,-3.47714 0.642363,-0.32583 1.436008,0.0116 2.0690616,0.21878 0,0 3.956587,1.26145 3.956587,1.26145 0.616762,0.18619 1.440663,0.39566 1.647802,1.09621 0.225758,0.76339 -1.26378,4.21725 -1.647802,5.09003 0,0 -5.5857696,-1.72693 -5.5857696,-1.72693 z m 1.8619236,-4.08692 c 0,0 -1.4662646,0 -1.4662646,0 0,0 -1.09388,2.32274 -1.09388,2.32274 0,0 5.3530286,1.62919 5.3530286,1.62919 0,0 0.930962,-2.79289 0.930962,-2.79289 0,0 -3.723846,-1.15904 -3.723846,-1.15904 z m 28.73413,6.04659 c -0.432897,0.79365 -1.135773,2.12958 -1.20094,3.02563 -0.06517,0.86114 0.502719,2.84408 0.765716,3.72384 1.112499,3.72152 4.91315,9.49581 8.706818,10.70606 0.0931,-4.20096 1.363859,-5.73938 2.327404,-9.30961 -0.891395,0.0815 -1.957346,0.42126 -2.655568,-0.34679 0,0 -0.835538,-1.74788 -0.835538,-1.74788 0,0 0.698221,-1.1637 0.698221,-1.1637 -0.535302,-0.1187 -1.163702,-0.18619 -1.154392,-0.88907 0.007,-0.45152 0.651673,-1.83865 0.563232,-2.60204 0,0 -0.349111,-1.1637 -0.349111,-1.1637 -0.148954,-0.64003 -0.0023,-0.96122 -0.249032,-1.62918 0,0 -2.534543,-4.65481 -2.534543,-4.65481 -1.356877,1.2568 -3.15596,4.3569 -4.082267,6.05125 z m 71.246499,-2.79288 c -1.00777,1.62452 -2.49964,3.89142 -3.68661,5.35303 -0.61909,0.76338 -2.13423,2.25525 -2.0551,3.25836 0,0 1.60358,3.72385 1.60358,3.72385 0.88907,2.24362 1.85494,5.50664 1.90847,7.91317 1.44532,-0.35609 2.62531,-1.43601 3.7029,-2.42748 0.55858,-0.51436 1.52678,-1.61987 1.99692,-2.22733 1.63849,-2.11328 4.1451,-7.29641 3.78901,-10.00783 -0.11172,-0.85649 -0.61211,-1.64315 -1.11017,-2.32741 0,0 -1.39645,0.93096 -1.39645,0.93096 0.0605,-1.33593 0.73314,-1.46161 0.63306,-2.3274 -0.10473,-0.90769 -2.54618,-4.20795 -3.1932,-5.12029 -0.9938,0.8751 -1.50118,2.14121 -2.19241,3.25837 z m -19.715441,-0.2118 c -1.49187,1.63617 -3.70756,4.59663 -4.8573,6.49579 -0.391,0.64702 -1.55005,2.47636 -1.30102,3.20949 0.17689,0.52599 1.07527,0.94027 1.53376,1.22654 1.13112,0.71218 1.61755,1.14043 2.56015,2.0807 1.07526,1.07759 1.44997,1.56169 2.31111,2.78823 0.30722,0.43988 0.59116,0.99147 1.20327,0.99845 0.63771,0.009 2.20638,-1.01242 2.76961,-1.38247 1.7409,-1.14276 5.055121,-3.4143 6.516731,-4.75256 0.51901,-0.47479 1.98993,-1.64315 2.03881,-2.31577 0.0559,-0.80295 -1.43601,-2.60669 -1.94571,-3.24906 -2.017861,-2.53687 -2.855731,-3.36542 -5.446131,-5.32277 -0.92863,-0.70287 -1.87589,-1.55936 -3.0233,-1.82236 -1.01474,0.31188 -1.65478,1.27077 -2.35998,2.04579 z m -25.338452,-0.71917 c 0.10706,1.81072 0.747096,1.97132 1.629183,3.49111 0,0 0.930961,-0.23274 0.930961,-0.23274 0,0 -0.23274,1.1637 -0.23274,1.1637 2.180777,0.005 2.380934,1.07294 3.491106,1.17767 0.821574,0.0768 1.079915,-0.56091 2.560144,-0.71219 0.712186,-1.7665 -0.207139,-3.27 -2.094663,-3.4911 -0.151282,0.44686 -0.235068,0.59814 -0.719168,0.79597 -1.226542,0.50039 -1.391788,-0.57254 -2.073717,-1.26145 0,0 -0.232741,0.69822 -0.232741,0.69822 0,0 -3.258365,-1.62919 -3.258365,-1.62919 z m 11.150593,7.21496 c 0,0 -0.698222,8.61139 -0.698222,8.61139 0,0 -0.209466,2.09467 -0.209466,2.09467 0,0 -0.174555,4.35457 -0.174555,4.35457 0,0 1.57798,1.46394 1.57798,1.46394 0,0 0,-3.72385 0,-3.72385 0,0 0.22343,-2.79289 0.22343,-2.79289 0,0 0,-16.99005 0,-16.99005 0,0 -0.719167,6.98222 -0.719167,6.98222 z m -13.245257,-4.88755 c 0,0 -1.396442,-0.46548 -1.396442,-0.46548 -0.674948,1.66642 -0.930962,1.60125 -2.048116,2.8115 -0.323509,0.35144 -0.705203,0.91467 -1.063624,1.18 -0.628399,0.46315 -1.27309,0.3398 -1.922435,0.83321 -0.528321,0.40264 -1.117154,1.44299 -1.850287,1.58496 -0.577196,0.11171 -1.010093,-0.48876 -2.192414,-0.8239 -0.3142,0.60047 -0.882086,1.40109 -0.644691,2.09466 0.260669,0.75641 2.064407,2.30413 2.739354,2.83478 2.215689,1.74788 6.188568,4.78747 8.844136,5.54388 0,0 2.632294,-3.95659 2.632294,-3.95659 0,0 0.160591,-0.93096 0.160591,-0.93096 0.488755,-0.14896 1.121808,-0.2886 1.503503,-0.63306 0.4841,-0.43988 1.512812,-2.91623 1.517467,-3.55627 0.0047,-0.86812 -1.636165,-3.75643 -2.371625,-4.18467 -0.458498,-0.26765 -1.065951,-0.23042 -1.580307,-0.2374 1.107844,-1.75021 -0.181537,-2.63462 -1.396442,-3.95658 -0.782008,0.70753 -0.854158,0.80993 -0.930962,1.86192 z m -51.43563,1.15905 c 0.577196,0.17921 1.710642,0.35143 1.913126,1.00078 0.141972,0.45617 -0.214121,1.34058 -0.360748,1.79676 -0.370057,1.14275 -0.686584,2.3018 -0.854157,3.4911 -2.336714,-0.11404 -5.9372076,-1.68504 -8.3786536,-2.3274 0,0 1.396442,-5.81851 1.396442,-5.81851 0,0 6.2839906,1.85727 6.2839906,1.85727 z m -0.181538,2.16914 c 0,0 -1.214904,-0.7727 -1.214904,-0.7727 0,0 -3.7238466,-1.15905 -3.7238466,-1.15905 0,0 -0.516684,2.50894 -0.516684,2.50894 0,0 1.214905,0.84485 1.214905,0.84485 0,0 3.7238466,1.06828 3.7238466,1.06828 0,0 0.516683,-2.49032 0.516683,-2.49032 z m 53.711832,-0.76805 c 0,0 -1.163702,0.23274 -1.163702,0.23274 0.425915,-0.59581 0.542285,-0.60745 1.163702,-0.23274 z m 14.662645,0.23274 c 0,0 0.232741,0.23274 0.232741,0.23274 0,0 0,-0.23274 0,-0.23274 0,0 -0.232741,0 -0.232741,0 z m 34.529368,0.005 c 0.73779,0.6284 -0.38868,2.72306 -1.01475,0.68891 0,0 -0.23274,-0.92631 -0.23274,-0.92631 0.37239,0.014 0.94726,-0.0186 1.24749,0.2374 z m -62.225476,1.85727 c 0,0 0.23274,0.23274 0.23274,0.23274 0,0 0,-0.23274 0,-0.23274 0,0 -0.23274,0 -0.23274,0 z m 29.325291,3.4911 c 0,0 0.930964,0.69822 0.930964,0.69822 0,0 -1.396445,2.09467 -1.396445,2.09467 0,0 0.698222,0.23274 0.698222,0.23274 0,0 -0.232741,1.39644 -0.232741,1.39644 0,0 1.861924,-3.95659 1.861924,-3.95659 0,0 -1.861924,-0.46548 -1.861924,-0.46548 z m 70.753085,1.62919 c 0,0 -6.51673,0.53064 -6.51673,0.53064 -0.7727,0.0954 -1.89684,0.15129 -2.29482,0.90071 -0.36075,0.59814 -0.0815,1.63384 0,2.29249 0,0 0.4329,4.40112 0.4329,4.40112 0,0 -3.88677,0 -3.88677,0 0,0 -1.00078,-1.14275 -1.00078,-1.14275 0,0 0.38169,-0.74012 0.38169,-0.74012 0,0 -0.61443,-5.07839 -0.61443,-5.07839 -0.35842,0.23972 -0.5004,0.25136 -0.62142,0.7308 0,0 0.58651,5.32045 0.58651,5.32045 0.1024,0.73779 0.15593,1.42204 0.97983,1.71297 0.47014,0.16757 3.69359,-0.20947 4.40811,-0.27696 0,0 9.07687,-0.73779 9.07687,-0.73779 0,0 0,1.1637 0,1.1637 0,0 0.69822,0 0.69822,0 0,0 -0.23274,-3.25836 -0.23274,-3.25836 0,0 -0.46548,0 -0.46548,0 -0.1443,1.75253 -0.80761,1.55936 -2.3274,1.76417 0,0 -6.05125,0.56323 -6.05125,0.56323 0,0 -0.93096,-6.51673 -0.93096,-6.51673 1.72926,-0.56091 6.68197,-0.92864 8.61139,-0.93096 0,0 0.69822,0.93096 0.69822,0.93096 0,0 -0.69822,-3.49111 -0.69822,-3.49111 0,0 -0.23274,1.86193 -0.23274,1.86193 z M 50.30151,65.050938 c 0,0 0,-0.93096 0,-0.93096 0,0 0,0.93096 0,0.93096 z m -36.540244,0.75408 c 2.024842,-0.37704 1.347567,-1.09388 2.378607,-1.3848 0.574869,-0.16059 2.411191,0.14895 3.207163,0.16524 0,0 -0.761061,4.65481 -0.761061,4.65481 0,0 -0.542285,1.85727 -0.542285,1.85727 0,0 -3.584203,0.2374 -3.584203,0.2374 0,0 0.232741,-1.62919 0.232741,-1.62919 0,0 -1.396443,0 -1.396443,0 -0.418932,3.17691 -0.858812,3.57722 0.930962,4.42207 0,0 0.23274,-1.39644 0.23274,-1.39644 0,0 3.723847,0.46548 3.723847,0.46548 -0.53763,2.21569 0.262997,4.67343 -0.698221,6.74947 -1.673404,-0.30023 -1.817703,-0.30023 -3.491106,0 0,0 0,-1.86192 0,-1.86192 0,0 -0.698222,0.23274 -0.698222,0.23274 -0.616762,-1.01242 -1.75719,-1.29404 -2.792884,-1.80607 0,0 -6.5167316,-3.08148 -6.5167316,-3.08148 0,0 -0.23274,1.1637 -0.23274,1.1637 0,0 -3.49110602,-0.23274 -3.49110602,-0.23274 0,0 0.477117,-6.05125 0.477117,-6.05125 0.07681,-0.67495 0.146627,-1.92011 0.75873402,-2.32508 0.579524,-0.37704 2.583419,-0.009 3.418957,0 0,0 -0.232741,1.39412 -0.232741,1.39412 0,0 9.0768756,-1.57333 9.0768756,-1.57333 z m 70.054863,-0.98682 c 0,0 -1.861923,4.65481 -1.861923,4.65481 1.366183,-0.40962 2.494973,0.29093 3.723843,0.88907 1.64315,0.7983 1.99459,0.21412 3.02563,2.13656 0,0 -2.09467,-0.69822 -2.09467,-0.69822 0,0 0.23275,1.86192 0.23275,1.86192 0,0 4.42206,-1.86192 4.42206,-1.86192 -0.82855,-2.83478 -4.51051,-6.43062 -7.44769,-6.98222 z m -33.9801,0.46548 c 0,0 0.232741,0.23275 0.232741,0.23275 0,0 0,-0.23275 0,-0.23275 0,0 -0.232741,0 -0.232741,0 z m -37.936686,2.42516 c 0,0 -9.0768756,1.53143 -9.0768756,1.53143 0,0 0,-1.39644 0,-1.39644 0,0 -0.598143,0.37006 -0.598143,0.37006 0,0 -0.565559,4.75023 -0.565559,4.75023 0.833211,-0.55625 0.758734,-1.15207 0.930962,-2.09467 0,0 10.4733176,4.94574 10.4733176,4.94574 0,0 1.850286,0.95423 1.850286,0.95423 0,0 1.64082,1.08225 1.64082,1.08225 0,0 0,-3.02563 0,-3.02563 0,0 -0.698221,0 -0.698221,0 0,0 0,1.39644 0,1.39644 -0.719168,-0.20481 -3.637733,-1.43368 -4.010117,-1.95734 -0.297908,-0.42126 -0.211794,-1.04966 -0.167573,-1.53376 0.0931,-0.97518 0.290925,-3.68428 0.991474,-4.28475 0.593488,-0.50505 3.253711,-0.76572 4.117178,-0.83554 -0.165246,0.94493 -0.358421,1.27774 0.23274,2.09466 0.388676,-1.17999 0.758734,-2.4973 0.465481,-3.72384 -1.964329,1.57332 -3.183889,1.35455 -5.58577,1.72693 z m -0.465481,0.60047 c 0,0 0.232741,0.23274 0.232741,0.23274 0,0 -0.698222,5.58577 -0.698222,5.58577 0,0 -5.3530286,-2.49032 -5.3530286,-2.49032 -1.226542,-0.58418 -2.136557,-0.85881 -3.025625,-1.93175 0,0 8.8441346,-1.39644 8.8441346,-1.39644 z m -4.4220676,2.3274 c 0,0 2.327404,1.39645 2.327404,1.39645 0,0 0.232741,-1.62919 0.232741,-1.62919 0,0 -2.560145,0.23274 -2.560145,0.23274 z m 18.0187626,0.47014 c 0,0 1.298691,4.18467 1.298691,4.18467 0.207139,-0.90303 0.889069,-3.91236 1.692023,-4.28242 1.049659,-0.4841 2.487995,0.42824 4.824709,-0.13965 0,0 0.23274,0.23275 0.23274,0.23275 0,0 -1.412734,5.81851 -1.412734,5.81851 0,0 0.481772,1.62918 0.481772,1.62918 0,0 1.396443,-5.58577 1.396443,-5.58577 0.183865,-0.63538 0.325836,-1.59427 0.996129,-1.88054 0.502719,-0.2118 1.254471,-0.0372 1.796756,0 1.072933,0.0675 1.978293,0.0396 3.025625,-0.21413 0,0 -2.706771,10.70606 -2.706771,10.70606 -0.458499,1.78512 -0.379367,2.98606 -2.413518,3.02563 0,0 -3.025625,0 -3.025625,0 0,0 -0.930962,-3.49111 -0.930962,-3.49111 -0.128007,0.83321 -0.49341,2.79289 -1.226542,3.25139 -0.472463,0.2979 -2.769611,0.23739 -3.428266,0.23972 0,0 -2.792885,-13.73169 -2.792885,-13.73169 0,0 2.192415,0.2374 2.192415,0.2374 z m 92.998413,1.85727 c 0.0116,-1.85494 0.27463,-1.8596 2.3274,-1.86192 0,0 7.21496,0 7.21496,0 1.37782,0 2.86038,-0.1443 4.18932,0.23274 0,0 0,2.3274 0,2.3274 0,0 -8.37865,0.23274 -8.37865,0.23274 0,0 0.23274,3.25837 0.23274,3.25837 0,0 3.72385,-0.23274 3.72385,-0.23274 0,0 1.39178,0.37238 1.39178,0.37238 0,0 0.2374,2.65324 0.2374,2.65324 0,0 -3.72385,0 -3.72385,0 -0.5865,0.0116 -1.2568,-0.0116 -1.62453,0.53763 -0.30256,0.45617 -0.23739,1.47325 -0.23739,2.02252 0,0 6.74947,0 6.74947,0 0.42359,0.002 1.14741,-0.0349 1.48954,0.23739 0.48875,0.38635 0.48875,1.69901 0,2.08535 -0.37006,0.29093 -1.25913,0.2374 -1.72228,0.2374 0,0 -11.86976,0 -11.86976,0 0,0 0,-12.1025 0,-12.1025 z m -32.583661,1.1637 c 0,0 1.1637,-0.46548 1.1637,-0.46548 0,0 -1.1637,0.46548 -1.1637,0.46548 z m -0.93096,-0.23274 c 0,0 -0.23274,0.69822 -0.23274,0.69822 0,0 0.93096,-0.46548 0.93096,-0.46548 0,0 -0.69822,-0.23274 -0.69822,-0.23274 z m -10.706058,2.36697 c 0,0 -9.076876,0.85183 -9.076876,0.85183 0,0 -4.887548,0.4073 -4.887548,0.4073 -1.149738,0.15128 -4.433705,0.0302 -5.120289,0.79597 0,0 10.240578,0 10.240578,0 0,0 6.05125,-0.23274 6.05125,-0.23274 0,0 5.818511,0 5.818511,0 -0.849503,-1.18232 -1.47092,-1.94106 -3.025626,-1.82236 z m 16.291828,0.69822 c 0,0 -4.65481,-0.37006 -4.65481,-0.37006 -1.20327,-0.16059 -4.598948,-0.62607 -5.585767,-0.13033 -0.705203,0.35376 -1.182321,1.00311 -1.629183,1.62453 0,0 13.96442,0 13.96442,0 0,0 5.58577,0.23274 5.58577,0.23274 0,0 3.956591,-0.23274 3.956591,-0.23274 0,0 -11.637021,-1.12414 -11.637021,-1.12414 z m 51.435631,0.19318 c 0.16292,1.99458 1.39179,1.70831 3.02563,1.92709 0,0 7.43838,1.10551 7.43838,1.10551 1.00311,0.38868 1.52445,1.4523 2.05975,2.32043 0.3561,0.58185 0.78201,1.17999 0.91002,1.86192 0.13731,0.72615 -0.0884,1.58496 -0.14896,2.3274 -0.16291,2.04346 -0.48177,4.84566 -1.18232,6.74947 0,0 -3.4911,-0.46548 -3.4911,-0.46548 0,0 0.46548,-1.62918 0.46548,-1.62918 0,0 -10.00784,-1.39644 -10.00784,-1.39644 -0.7471,2.65324 -1.24283,1.09388 -3.49111,1.62918 1.40808,0.21645 2.84875,0.3654 2.56015,2.09466 0,0 9.54235,3.72385 9.54235,3.72385 0,0 0.46549,-1.62918 0.46549,-1.62918 0,0 3.25836,1.1637 3.25836,1.1637 0,0 -2.09466,6.516732 -2.09466,6.516732 -2.77194,-1.10319 -3.05123,-0.78666 -2.79289,-2.56014 0,0 -1.86192,-0.46548 -1.86192,-0.46548 -0.31886,2.06673 -1.46627,5.75567 -3.95659,5.9791 -1.00544,0.0884 -3.40499,-0.97518 -4.42207,-1.36852 -1.44299,-0.55857 -2.71375,-0.67727 -3.61445,-2.05975 -1.29637,-1.98527 -0.30955,-3.116392 0.35609,-5.110982 0.95191,-2.85572 1.62685,-5.65792 2.18543,-8.61139 0.13034,-0.68891 0.55392,-3.93332 0.84485,-4.23355 0.46781,-0.60047 2.78823,-0.0815 3.48645,0 0,0 0,1.20792 0,1.20792 0,0 10.24058,1.1637 10.24058,1.1637 0.0209,-1.28007 0.0116,-2.42515 -1.07294,-3.35146 -0.54228,-0.46548 -1.93174,-0.5353 -2.65091,-0.61676 0,0 -6.05125,-0.68658 -6.05125,-0.68658 0,0 -0.23274,1.39644 -0.23274,1.39644 0,0 -3.72385,-0.46548 -3.72385,-0.46548 0,0 0.23274,-3.25837 0.23274,-3.25837 0,0 0,-3.72385 0,-3.72385 0,0 3.72385,0.46549 3.72385,0.46549 z M 0.26232338,83.204698 c -0.0093,-1.97597 -0.751752,-3.77971 1.20559502,-5.21572 0.740114,-0.53995 2.306457,-0.56556 3.2188,-0.59814 0,0 5.02021,-0.36773 5.02021,-0.36773 2.6602226,-0.20481 3.0256256,2.8278 3.1140666,4.78514 0.06284,1.36386 -0.23274,2.27853 1.405752,2.56015 0,0 0,-1.62918 0,-1.62918 0,0 3.723847,-0.46549 3.723847,-0.46549 0,0 0.698221,6.98222 0.698221,6.98222 0,0 -3.723847,0.23274 -3.723847,0.23274 -0.265324,-2.26689 -1.584962,-1.53143 -3.258365,-1.41739 0,0 -4.6548086,0.27463 -4.6548086,0.27463 0,0 -2.560144,0.2118 -2.560144,0.2118 0,0 0,1.62918 0,1.62918 0,0 -3.49110602,0.23274 -3.49110602,0.23274 0,0 -0.698221,-7.21495 -0.698221,-7.21495 z M 11.443172,81.808248 c -0.03957,-0.92165 0.130334,-1.96665 -0.449189,-2.75797 -0.747097,-1.02173 -2.9697676,-0.51436 -4.2149286,-0.50039 -0.97751,0.0116 -4.17769,0.14197 -4.78747,0.77037 -0.642364,0.66331 -0.563232,1.63849 -0.565559,2.48799 0,0 0.297907,4.65481 0.297907,4.65481 0.114043,0.94027 0.05586,1.55238 0.865795,2.09467 0.176882,-2.14587 1.589617,-1.49885 3.258365,-1.69435 0,0 3.025626,-0.20714 3.025626,-0.20714 0,0 7.4476926,-0.42592 7.4476926,-0.42592 0,0 0,1.1637 0,1.1637 0,0 0.698221,0 0.698221,0 0,0 -0.23274,-3.02562 -0.23274,-3.02562 0,0 -1.429027,1.2568 -1.429027,1.2568 0,0 -3.458522,0.37238 -3.458522,0.37238 0,0 -0.456171,-4.18933 -0.456171,-4.18933 z m 127.765178,-3.25836 c 0,0 0,3.72384 0,3.72384 0,0 0.69822,-1.1637 0.69822,-1.1637 0,0 7.44769,0.98915 7.44769,0.98915 0.85649,0.13732 2.32275,0.17455 3.0233,0.50737 0.85183,0.40497 2.34369,2.2506 2.60669,3.15829 0.19085,0.65866 -0.23507,2.82314 -0.27696,3.72385 0,0 -10.00784,-1.26146 -10.00784,-1.26146 -1.42204,-0.19783 -2.98838,0.0419 -3.4911,-1.53143 -0.28162,0.10241 -0.44454,0.0838 -0.67728,0.3654 -0.50039,0.68426 -0.49341,2.45542 0,3.12571 0,0 0.67728,-1.86192 0.67728,-1.86192 0,0 5.81851,0.76338 5.81851,0.76338 0,0 7.44769,0.8658 7.44769,0.8658 0,0 0.23274,1.62918 0.23274,1.62918 0.47479,-1.1381 1.24051,-5.12727 0.96122,-6.28399 -0.2118,-0.88209 -1.7921,-3.00468 -2.59971,-3.41896 -0.7215,-0.36773 -3.62144,-0.54694 -4.6455,-0.71218 0,0 -4.18933,-0.55858 -4.18933,-0.55858 -0.54228,-0.0675 -1.56634,-0.17223 -1.95502,-0.56789 -0.38867,-0.39565 -0.35376,-0.98216 -0.37238,-1.49186 0,0 -0.69822,0 -0.69822,0 z m -63.684762,5.83945 c 0,0 0.823901,12.08156 0.823901,12.08156 0.102406,1.45928 0.158264,5.185462 0.719168,6.283992 0,0 0,-15.593612 0,-15.593612 0,0 0.23274,-8.14591 0.23274,-8.14591 -2.418172,1.16836 -1.985275,3.11872 -1.775809,5.37397 z M 2.1242464,82.040988 c 0,-0.63072 -0.09775,-1.71529 0.372384,-2.18776 0.381695,-0.38402 1.200941,-0.39798 1.72228,-0.47013 0,0 4.887548,-0.36308 4.887548,-0.36308 0.439879,0.0186 0.891396,0.0279 1.2242146,0.36773 0.514356,0.52367 0.623744,2.80918 0.635381,3.58421 0.0093,0.59581 0.258342,2.43679 -0.146627,2.78823 -0.356092,0.31187 -2.1272466,0.45384 -2.6439306,0.4678 0,0 -5.81851,0.46781 -5.81851,0.46781 0,0 -0.23274,-4.65481 -0.23274,-4.65481 z M 103.13358,79.457578 c 0,0 2.32741,0 2.32741,0 1.59892,0.25368 4.07528,1.85959 5.35303,2.86503 5.21804,4.1102 8.1366,10.31738 8.14591,16.94117 0,0 0,6.982222 0,6.982222 0,0 0,12.1025 0,12.1025 -0.0116,1.85494 -0.27463,1.85959 -2.3274,1.86192 0,0 -13.03347,0 -13.03347,0 0,0 -6.516731,0 -6.516731,0 -6.13969,-0.009 -12.59824,-3.36543 -16.124252,-8.37865 -0.782008,-1.1125 -2.218016,-3.38172 -2.548508,-4.65481 -0.35842,-1.15439 -0.04887,-2.12958 0,-3.25837 0,0 0.712186,-7.913172 0.712186,-7.913172 0,0 0.71684,-8.14592 0.71684,-8.14592 0,0 0.393332,-4.11717 0.393332,-4.11717 0,0 2.420502,-1.93408 2.420502,-1.93408 0,0 -0.46548,-0.69822 -0.46548,-0.69822 0,0 5.81851,-0.46548 5.81851,-0.46548 0,0 0,0.23274 0,0.23274 0,0 -0.46548,0.46548 -0.46548,0.46548 0,0 0.93096,1.62919 0.93096,1.62919 0,0 0.46548,-0.93097 0.46548,-0.93097 1.21025,1.19396 1.15206,1.9108 2.79288,2.56015 0,0 1.0613,-4.05201 1.0613,-4.05201 0,0 0.56789,-0.37006 0.56789,-0.37006 0,0 -0.69822,3.02563 -0.69822,3.02563 0.57021,0.60512 0.1699,0.91699 -0.46549,1.1637 0,0 1.16371,1.1637 1.16371,1.1637 0.0652,-0.93562 0.0605,-1.1893 0.93096,-1.62918 0.0279,0.61909 0.0489,1.27309 0.33282,1.84097 0.50272,1.00544 3.5167,2.9209 4.55473,3.7192 0,0 4.422061,3.74944 4.422061,3.74944 0,0 1.5454,-2.09699 1.5454,-2.09699 0.87278,-1.4779 2.36232,-6.28864 2.48567,-8.00859 0.17455,-2.44145 -3.81694,-2.66721 -5.42751,-3.64937 0,0 0.93096,0 0.93096,0 z M 75.923902,108.10792 c -0.318855,1.66409 -2.762629,4.41974 -3.986844,5.60672 -3.742465,3.62842 -8.906975,6.02099 -14.187855,6.0303 0,0 -9.076876,0 -9.076876,0 0,0 -10.473318,0 -10.473318,0 -1.56867,-0.002 -2.06208,0.11404 -2.094664,-1.62918 0,0 0,-3.25837 0,-3.25837 0,0 0.232741,-3.72384 0.232741,-3.72384 0,0 0,-8.6114 0,-8.6114 0,0 0,-3.956592 0,-3.956592 0.0093,-5.40888 2.066735,-10.74795 5.82782,-14.66264 1.214904,-1.26611 4.3569,-3.9147 6.041941,-4.37319 0.507374,-0.0768 1.540741,-0.0535 2.094663,0 0,0 4.615242,0.38169 4.615242,0.38169 1.310329,0.5097 0.365403,0.85881 2.832451,1.43135 0.0023,0.7983 0.521339,3.38638 1.098535,3.9659 1.019403,1.03104 2.757974,-0.19085 2.858052,-1.63849 0,0 -0.930961,0.23274 -0.930961,0.23274 0,0 -0.465481,-1.1637 -0.465481,-1.1637 -1.903817,0.71451 -3.293277,-1.98063 -0.698221,-2.47636 0.276961,-0.0466 0.626071,-0.0745 0.900705,0 0.737787,0.17455 0.712186,0.71917 1.892179,1.31265 0,0 -0.23274,-1.1637 -0.23274,-1.1637 0,0 0.930962,0.69822 0.930962,0.69822 0,0 0.23274,-0.69822 0.23274,-0.69822 0,0 2.13423,1.49885 2.13423,1.49885 0,0 2.055097,0.36307 2.055097,0.36307 0,0 -0.46548,-0.93096 -0.46548,-0.93096 0,0 4.189327,-0.46548 4.189327,-0.46548 0,0 -0.930962,0.69822 -0.930962,0.69822 0,0 3.491106,2.79289 3.491106,2.79289 0,0 0.698222,-1.62918 0.698222,-1.62918 0,0 -0.465481,2.56014 -0.465481,2.56014 0,0 0.560904,0.53298 0.560904,0.53298 0,0 0.30489,3.65635 0.30489,3.65635 0,0 0.297908,5.58577 0.297908,5.58577 0,0 0.465481,7.913172 0.465481,7.913172 -0.721496,-0.55858 -0.626072,-0.74942 -0.698222,-1.62918 -1.831667,0.33282 -2.632294,-0.68659 -3.975206,-1.603582 -0.402641,-0.27231 -0.886741,-0.48178 -1.217232,-0.83787 -0.579524,-0.6284 -0.339801,-0.86579 -1.324293,-1.74788 0,0 0.23274,1.86192 0.23274,1.86192 0.388677,0.24904 2.150522,1.561692 2.287839,1.882872 0.391003,0.91002 -1.836322,1.85262 -2.520579,1.91778 0,0 -3.025625,-0.77502 -3.025625,-0.77502 0.765716,0.94725 1.003111,0.95889 2.094663,1.39644 0,0 -0.532975,0.6959 -0.532975,0.6959 0,0 -4.587314,0.70054 -4.587314,0.70054 1.996913,0.57022 4.349919,2.30181 8.611395,3.20949 0.705204,0.14896 2.567127,0.61677 3.167597,0.26766 0.586506,-0.33981 1.266108,-2.09001 1.740899,-2.77892 0,0 0,2.56014 0,2.56014 z M 47.978761,81.391648 c -0.521339,0.88907 0.181537,3.9659 0.721495,4.83867 0,0 0,-2.81383 0,-2.81383 0,0 1.135773,-3.00468 1.135773,-3.00468 -0.709858,0.13499 -1.456955,0.30024 -1.857268,0.97984 z M 3.7534294,81.110028 c 0,0 0.23274,3.95659 0.23274,3.95659 0,0 5.353029,-0.46548 5.353029,-0.46548 0,0 -0.46548,-3.95659 -0.46548,-3.95659 0,0 -5.120289,0.46548 -5.120289,0.46548 z m 63.0726496,-0.46548 c 0,0 0,0.46548 0,0.46548 -0.965873,-0.005 -1.512813,0.1699 -2.094664,-0.69822 0,0 2.094664,0.23274 2.094664,0.23274 z m -28.094094,11.86976 c -0.356093,1.2056 -0.898378,2.94882 -0.716841,4.18933 0.137317,0.92631 0.775026,1.96666 1.221887,2.79288 0.921652,1.701342 2.192415,4.075292 3.616786,5.353032 0,0 3.109412,-5.353032 3.109412,-5.353032 0.795972,-1.28007 0.318854,-1.67805 1.545396,-2.09466 0,0 2.166814,-3.78901 2.166814,-3.78901 0,0 0.377039,-1.09854 0.377039,-1.09854 0,0 -1.224215,-3.72384 -1.224215,-3.72384 0,0 -1.552378,-6.98222 -1.552378,-6.98222 -3.893747,1.48954 -7.389508,6.80533 -8.5439,10.70606 z m 52.764574,-10.47332 c 0,0 0.23274,1.62919 0.23274,1.62919 -1.14741,-0.36075 -1.27076,-0.86114 -1.86192,-1.86193 0,0 0.23274,-0.23274 0.23274,-0.23274 0,0 1.39644,0.46548 1.39644,0.46548 z m 15.437671,6.05125 c 0,0 -0.77502,2.79289 -0.77502,2.79289 0.75175,-1.12181 1.23818,-1.51514 2.56014,-1.86192 -0.014,0.37936 -0.002,0.75873 -0.13033,1.12413 -0.1443,0.41195 -1.44765,2.5904 -1.76417,2.86504 -0.77968,0.67029 -1.55471,0.68425 -1.78978,1.20326 -0.23274,0.50738 0.1955,1.1125 0.57254,1.37317 0.94493,0.82623 2.36697,0.37472 3.34448,0 -0.77037,-1.87588 -1.28938,-2.58342 0.93097,-3.30724 1.28007,2.08768 2.06906,0.22576 2.90227,-0.31187 0.34678,-0.22343 0.88208,-0.29093 1.28705,-0.38635 0,0 0.39566,3.49111 0.39566,3.49111 0,0 -0.39566,3.72384 -0.39566,3.72384 0,0 0.93096,-0.46548 0.93096,-0.46548 0.26533,1.2056 0.13965,1.41041 -0.23274,2.560152 0,0 -1.1637,-0.46548 -1.1637,-0.46548 0,0 0.46548,-1.396452 0.46548,-1.396452 -1.9876,1.487222 -1.35687,2.094672 -3.25836,1.629192 -0.8658,2.50661 -0.0884,2.07837 1.1637,4.88755 1.37317,-0.70986 2.2762,-2.42749 3.06985,-3.72385 0.64934,-1.0613 2.353,-3.979862 2.4461,-5.120292 0.0698,-0.87278 -0.64004,-3.53765 -0.96355,-4.42207 -1.45695,-4.01477 -4.30802,-7.85964 -8.04351,-10.00784 0,0 -1.55238,5.81851 -1.55238,5.81851 z m -40.108151,-5.12028 c 0,0 1.163702,2.09466 1.163702,2.09466 0,0 2.094664,-0.23274 2.094664,-0.23274 0,0 0,-0.69822 0,-0.69822 0,0 0.930961,0 0.930961,0 0,0 0,-0.46548 0,-0.46548 0,0 -4.189327,-0.69822 -4.189327,-0.69822 z m -4.654808,3.72384 c -1.617546,-0.36307 -2.038806,-0.71917 -3.258366,0.69822 0,0 3.747121,5.35303 3.747121,5.35303 0.784335,0.96588 1.035695,1.67806 2.30413,1.39645 0,0 0,-0.46549 0,-0.46549 0,0 -0.740115,-0.6377 -0.740115,-0.6377 -0.719167,-0.58186 -1.580307,-1.83633 0,-1.78047 -1.4523,-0.0512 4.112523,0.5772 2.825469,0.36075 0,0 1.638492,0.66098 1.638492,0.66098 -0.0768,-0.36075 -0.130334,-0.74477 -0.325836,-1.06828 -0.230413,-0.38635 -0.642364,-0.60279 -0.9682,-0.84717 -0.761061,-0.75408 -1.242834,-1.40343 -1.731589,0 0,0 0.930962,0.75175 0.930962,0.75175 0,0 -1.396443,0 -1.396443,0 0,0 0,-1.1637 0,-1.1637 0,0 -0.930961,0 -0.930961,0 0,0 0.23274,0.69822 0.23274,0.69822 0,0 -0.698221,-1.1637 -0.698221,-1.1637 0,0 -1.396443,0.93096 -1.396443,0.93096 0,0 0.302563,-1.86192 0.302563,-1.86192 0,0 0.395659,-3.72385 0.395659,-3.72385 -0.709859,0.69822 -0.72615,0.90536 -0.930962,1.86192 z m 28.859808,-0.93096 c 0,0 -0.23274,-0.93096 -0.23274,-0.93096 0,0 0.23274,0.93096 0.23274,0.93096 z m 1.62919,3.25837 c 0,0 -2.79289,0 -2.79289,0 0.18154,1.03104 0.30024,1.25912 1.39644,1.1637 0,0 0.23274,0.23274 0.23274,0.23274 0,0 -0.23274,0.93096 -0.23274,0.93096 0.42126,0.15361 0.93795,0.29558 1.26146,0.6284 0.66098,0.68891 0.7564,2.87667 0,3.67497 -0.94958,1.01475 -2.41818,0.54694 -3.12338,2.91158 0,0 2.17147,0.82856 2.17147,0.82856 0,0 1.0869,2.662552 1.0869,2.662552 0,0 -1.62919,0.23274 -1.62919,0.23274 0.42126,0.47014 1.74323,1.92476 2.33904,1.92476 0.61909,0 1.7828,-0.87045 2.31577,-1.22654 0,0 -1.1637,-0.46548 -1.1637,-0.46548 0.23507,-1.11017 0.35376,-0.95191 0.78201,-1.86192 0.55159,-1.170692 0.16291,-1.536092 2.01087,-2.327412 0,0 0.93097,2.094672 0.93097,2.094672 0,0 0.46548,0 0.46548,0 0,0 0.23274,-2.560152 0.23274,-2.560152 0,0 0.93096,0.46548 0.93096,0.46548 0.493411,-0.16757 0.714511,-0.2211 1.142751,-0.56323 0.76572,-0.61676 2.42283,-3.01399 2.04812,-4.05434 -0.15594,-0.43057 -0.97518,-1.10784 -1.32895,-1.43833 0,0 -3.258361,-2.78358 -3.258361,-2.78358 -0.60746,-0.47479 -3.00236,-2.23198 -3.67265,-2.19939 -0.55625,0.0256 -1.11482,1.06595 -1.44764,1.49652 0,0 0.13033,-2.27853 0.13033,-2.27853 0,0 -1.52678,-1.21258 -1.52678,-1.21258 -1.25447,1.67806 0.007,2.24827 0.69823,3.72385 z m -42.126018,3.02562 c 0,0 0.46548,0 0.46548,0 0,0 -0.46548,-2.3274 -0.46548,-2.3274 0,0 -0.698222,0 -0.698222,0 0,0 -0.930961,-3.49111 -0.930961,-3.49111 -0.463154,1.41041 1.126463,4.3825 1.629183,5.81851 z M 4.3701914,103.21804 c -0.553922,-0.37471 -0.937944,-1.91079 -1.110172,-2.55781 0,0 -1.519795,-6.283992 -1.519795,-6.283992 -0.144299,-0.64004 -0.553922,-2.11096 -0.235068,-2.69281 0.279289,-0.50505 1.038023,-0.59582 1.550051,-0.71684 0,0 3.723847,-0.77968 3.723847,-0.77968 0,0 0.698221,3.4911 0.698221,3.4911 0,0 -2.094663,0.46549 -2.094663,0.46549 0,0 0.698221,3.4911 0.698221,3.4911 0,0 10.2405776,-2.56014 10.2405776,-2.56014 0,0 -0.465481,-1.39645 -0.465481,-1.39645 0,0 3.723846,-0.93096 3.723846,-0.93096 0,0 1.861924,6.51673 1.861924,6.51673 0,0 -2.094664,0.46549 -2.094664,0.46549 1.198613,1.054312 2.150521,0.805282 2.84176,1.547722 0,0 1.405752,2.87434 1.405752,2.87434 0,0 1.312656,2.56015 1.312656,2.56015 1.063624,2.07139 1.29171,2.68815 0,4.88755 0,0 2.120265,-1.16371 2.120265,-1.16371 0.907688,1.61755 3.47016,5.10866 4.692047,6.51674 0.4841,0.55857 2.248272,2.34136 2.243618,3.00467 -0.0047,0.93097 -2.194742,2.12492 -2.979078,2.34835 0,0 -0.930961,-0.93096 -0.930961,-0.93096 0,0 -2.560145,2.29948 -2.560145,2.29948 0,0 -5.353029,4.21725 -5.353029,4.21725 0,0 0.930962,0.93097 0.930962,0.93097 -0.551595,0.47479 -2.078372,1.85726 -2.792885,1.82468 -0.937944,-0.0419 -2.953476,-2.89529 -3.584203,-3.68661 0,0 -2.699788,-3.72384 -2.699788,-3.72384 -0.256015,-0.38403 -0.837866,-1.19163 -0.896051,-1.62919 -0.08611,-0.67494 0.439879,-1.12181 0.900705,-1.52212 0.993802,-0.86114 2.208707,-1.8852 3.486452,-2.20172 0.83321,1.48255 2.343696,2.67884 0.23274,3.72384 0,0 1.629183,3.02563 1.629183,3.02563 0.719168,-0.27929 2.487995,-1.29869 2.881326,-1.9364 0.514357,-0.84019 -0.570214,-1.34757 -0.262996,-2.23198 0.237395,-0.68891 1.959674,-2.05277 2.72539,-1.81305 0.593488,0.18619 0.900705,0.82623 1.173011,1.32662 0,0 2.094664,-1.62918 2.094664,-1.62918 0,0 -1.861923,-2.56015 -1.861923,-2.56015 0,0 -1.629183,0.93096 -1.629183,0.93096 -0.456171,-0.68425 -1.866578,-2.41584 -1.573325,-3.21879 0.148954,-0.40497 0.784335,-0.91235 1.107844,-1.20327 0,0 -7.680433,3.78203 -7.680433,3.78203 -0.828556,0.41428 -2.899946,1.59893 -3.723847,1.59194 -0.684257,-0.007 -1.980621,-0.5865 -2.48334,-1.04733 -0.6237436,-0.57254 -1.1520646,-1.699 -1.5291036,-2.46472 0,0 -1.056642,-2.3274 -1.056642,-2.3274 -0.795972,-1.68504 -1.924763,-3.76342 -0.581851,-5.5369 0.66331,-0.8751 2.755647,-1.60358 3.7890136,-2.09233 0,0 8.145914,-4.240532 8.145914,-4.240532 0,0 -1.163702,0.232742 -1.163702,0.232742 0,0 -0.465481,-1.396452 -0.465481,-1.396452 0,0 -10.0078366,2.560152 -10.0078366,2.560152 0,0 0.465481,1.39644 0.465481,1.39644 -0.72615,0.21179 -2.706771,0.89605 -3.339825,0.46315 z M 2.8224674,92.281568 c 0,0 1.531432,6.74947 1.531432,6.74947 0.300235,1.079922 0.260669,1.931752 1.284727,2.560152 -0.06051,-0.36308 -0.148954,-0.75408 0,-1.09854 0.370057,-0.698222 2.262237,-1.063622 3.002351,-1.207922 0,0 10.0078376,-2.34835 10.0078376,-2.34835 0,0 0.698221,1.39644 0.698221,1.39644 0.218776,-1.12413 -0.176883,-2.82547 -1.163702,-3.4911 -0.01396,0.43057 0.01629,0.92398 -0.237395,1.29636 -0.495737,0.73313 -3.467832,1.17534 -4.417413,1.41041 0,0 -5.8185096,1.3592 -5.8185096,1.3592 -0.656328,0.16292 -1.847959,0.62607 -2.441447,0.17688 -0.55625,-0.41893 -0.951909,-2.5741 -1.135773,-3.31189 -0.139645,-0.56091 -0.549268,-2.01321 -0.404969,-2.52756 0.260669,-0.93096 1.133446,-0.4585 1.887525,-1.42903 0,0 -2.792885,0.46548 -2.792885,0.46548 z m 68.6584196,0.93096 c 0,0 0.232741,2.09467 0.232741,2.09467 0.90536,-0.57487 0.83321,-1.09388 0.930961,-2.09467 0,0 -1.163702,0 -1.163702,0 z m 65.632793,0.23274 c 0,0 -1.89218,6.05125 -1.89218,6.05125 -0.26299,0.896062 -0.66098,1.885202 0,2.741692 0.6028,0.85881 2.94184,1.46626 3.98685,1.8689 0.8239,0.31886 2.616,1.24749 3.4399,0.85881 0.93096,-0.43988 1.6897,-3.73082 2.10165,-4.77117 0.16291,-0.414282 0.41195,-1.142762 0.83786,-1.342922 0.44686,-0.20946 1.11017,0.10939 1.53376,0.27231 0,0 3.02563,1.070612 3.02563,1.070612 0,0 -0.23274,1.1637 -0.23274,1.1637 1.15904,-0.68891 1.33593,-1.999242 1.39644,-3.258372 0,0 -0.93096,1.39644 -0.93096,1.39644 0,0 -12.80073,-4.6548 -12.80073,-4.6548 0,0 0.23274,-1.39645 0.23274,-1.39645 0,0 -0.69822,0 -0.69822,0 z m -40.031351,2.79289 c -1.75719,0.64236 -2.07371,0.42591 -2.09466,-1.39644 1.11483,0.37936 1.64082,0.24437 2.09466,1.39644 z m 7.917831,2.09466 c 0.1955,-0.72847 0.66564,-1.28472 0.38635,-2.09001 -0.30023,-0.87045 -1.09388,-1.38247 -1.90149,-0.76338 -0.78666,0.60047 -2.35766,2.8371 -2.67884,3.78435 0,0 0.93096,0 0.93096,0 0,0 -1.1637,2.094672 -1.1637,2.094672 0,0 -0.46548,0 -0.46548,0 -0.898381,-1.26611 -1.461611,-0.48643 -1.163701,0.93096 -2.05743,0.60745 -2.11561,0.34911 -3.95659,1.62918 0,0 0,0.46548 0,0.46548 0,0 0.69822,0.93096 0.69822,0.93096 0,0 -1.62918,-0.23274 -1.62918,-0.23274 1.05431,2.12958 5.78825,4.79678 7.913171,6.09548 0.7471,0.45617 2.39025,1.54539 3.25837,1.41738 0.6796,-0.10007 1.36618,-0.77502 1.86192,-1.21723 1.21025,-1.07991 2.37395,-2.28784 3.45154,-3.50274 0.43523,-0.49108 1.03802,-1.17068 1.04268,-1.86192 0.007,-0.73314 -1.28473,-2.76496 -1.70133,-3.49111 -2.38327,0.77503 -1.57333,1.02871 -2.67419,2.56014 -0.89372,1.24051 -1.38015,1.1125 -1.51514,2.79289 0,0 -2.32741,-1.1637 -2.32741,-1.1637 0,0 0.46548,-1.1637 0.46548,-1.1637 0,0 -2.3274,0.46548 -2.3274,0.46548 0.53065,-1.78047 1.571,-1.72694 2.09699,-2.48567 0.77037,-1.10785 -0.61676,-2.29948 1.39877,-3.33284 -0.0512,-0.654002 -0.16292,-1.214912 0,-1.861932 z m -41.665187,-2.79288 c 0,0 0.23274,0.23274 0.23274,0.23274 0,0 0,-0.23274 0,-0.23274 0,0 -0.23274,0 -0.23274,0 z m 81.226407,2.56014 c -0.30257,1.50351 -0.80761,2.979082 -1.3243,4.422072 -0.16757,0.46315 -0.45617,1.34989 -0.88674,1.61522 -0.51435,0.3142 -1.2405,-0.0256 -1.74555,-0.21878 -1.12181,-0.43057 -4.7223,-1.40575 -4.96668,-2.58342 -0.12335,-0.59348 0.18619,-1.28705 0.38635,-1.838652 0.48177,-1.32429 0.87743,-2.72073 1.5547,-3.95658 0,0 6.98222,2.56014 6.98222,2.56014 z m -80.760926,3.956592 c 0,0 0.930961,-0.69822 0.930961,-0.69822 0,0 -0.758733,-0.95191 -0.758733,-0.95191 0,0 -0.637709,-3.935642 -0.637709,-3.935642 -0.528321,1.32895 0.262997,4.082272 0.465481,5.585772 z m 75.040166,-4.266132 c -0.78434,0.29558 -1.19163,2.574112 -1.26146,3.335172 0,0 4.18933,1.39644 4.18933,1.39644 0,0 1.1637,-3.491112 1.1637,-3.491112 -0.73546,-0.32351 -3.4143,-1.49884 -4.09157,-1.2405 z M 37.733528,108.80614 c 0.0047,2.43447 0.344456,1.44532 1.163702,3.72385 0,0 0.698221,0 0.698221,0 0,0 1.896835,-4.65481 1.896835,-4.65481 0,0 0.863467,-2.3274 0.863467,-2.3274 0,0 -1.284727,-2.32741 -1.284727,-2.32741 0,0 -3.104757,-5.120292 -3.104757,-5.120292 0,0 -0.232741,10.706062 -0.232741,10.706062 z m 76.238772,-4.65481 c 0,0 -1.2824,2.32741 -1.2824,2.32741 0,0 1.61522,3.72384 1.61522,3.72384 0,0 3.25837,-1.1637 3.25837,-1.1637 0,0 0,-10.473322 0,-10.473322 0,0 -3.59119,5.585772 -3.59119,5.585772 z m -70.010639,-0.46548 c -0.279288,0.57254 -0.633053,1.20327 -0.500391,1.86193 0.17921,0.88208 1.654784,2.32507 2.292493,3.04657 0.712185,0.80528 3.13734,3.62144 4.084594,3.84952 0.667965,0.16059 1.526777,-0.38867 2.092336,-0.71218 1.896834,-1.08457 3.323533,-1.77116 4.189327,-3.80996 0.432898,0.0442 0.707531,0.14197 1.163702,0 1.238179,-0.2118 3.449213,-2.2925 4.189328,-3.30492 -2.353006,-0.58883 -2.616002,1.60591 -4.228893,2.20871 -0.85183,0.3398 -1.94571,-0.29325 -2.965113,0 -0.716841,0.18387 -1.010094,0.70288 -1.659439,0.97751 -0.374712,0.15826 -0.763389,0.15826 -1.154393,0.27696 -1.722279,0.35842 -2.157503,0.46548 -3.956587,0 0,0 0.232741,-0.67029 0.232741,-0.67029 0,0 -2.560145,-1.62918 -2.560145,-1.62918 1.252144,-2.62764 0.479445,-1.90149 0.782008,-3.25837 0.272306,-1.22421 0.805282,-1.31498 0.614435,-2.792882 -1.242834,1.054312 -1.915454,2.513592 -2.616003,3.956582 z m 44.469708,-1.12413 c -0.62374,-0.33981 -1.10086,-0.18154 -1.82236,-0.5004 -0.9263,-0.40962 -1.54539,-1.36385 -2.3274,-0.23739 0,0 -1.1637,-0.46548 -1.1637,-0.46548 0,0 -1.629184,2.09466 -1.629184,2.09466 0.465481,1.11017 0.477118,2.12259 -0.698221,2.79289 -0.342129,-0.84951 -0.809937,-0.8402 -1.629183,-1.16371 0.186192,1.18931 0.686584,3.2607 2.103973,3.45387 0.584178,0.0791 2.159835,-0.21412 2.783575,-0.34911 1.94571,-0.42126 5.45544,-1.43135 6.98221,-2.63927 0,0 -0.69822,-0.93097 -0.69822,-0.93097 0.8658,-0.0302 1.12414,0.0559 1.62918,-0.69822 -3.06519,-0.002 -2.02716,-0.53297 -3.53067,-1.35687 z m -72.109958,0.36773 c 0,0 -5.35303,2.56247 -5.35303,2.56247 -0.884413,0.43522 -2.4926486,1.06595 -2.9511476,1.94105 -0.453844,0.86114 -0.118698,1.70832 0.204812,2.53687 0,0 2.2343066,4.6455 2.2343066,4.6455 0.425915,0.7215 0.998457,1.31964 1.908472,1.26611 0.649346,-0.0372 2.359987,-0.98217 3.025625,-1.31498 0,0 6.051251,-2.96744 6.051251,-2.96744 0.651673,-0.36541 2.369297,-1.12414 2.676514,-1.71996 0.458499,-0.88674 -0.132662,-1.91312 -0.523666,-2.70211 0,0 -2.515923,-4.97134 -2.515923,-4.97134 -0.451517,-0.46548 -0.896051,-0.56556 -1.498849,-0.66563 -1.161374,0.18852 -2.211033,0.86812 -3.258365,1.38946 z m 48.875485,-1.10552 c 0,0 0.232741,0.23274 0.232741,0.23274 0,0 0,-0.23274 0,-0.23274 0,0 -0.232741,0 -0.232741,0 z m -44.800201,0.63771 c 0.416606,0.34678 1.962002,3.90305 2.390244,4.71532 0.323509,0.61443 1.042677,1.58031 0.719168,2.27853 -0.300235,0.64702 -2.087681,1.39644 -2.762629,1.73624 0,0 -5.585769,2.79289 -5.585769,2.79289 0,0 -2.783576,1.32894 -2.783576,1.32894 -0.907687,0.16059 -1.240506,-0.72149 -1.580307,-1.38713 0,0 -2.0527696,-4.18933 -2.0527696,-4.18933 -0.265324,-0.63305 -0.591161,-1.37549 -0.249033,-2.04579 0.363075,-0.71451 1.9736386,-1.36851 2.7090986,-1.73624 0,0 7.913174,-3.74014 7.913174,-3.74014 0.530648,-0.0512 0.821573,-0.13499 1.282399,0.24671 z m 111.163805,2.62065 c 0,0 0.98914,-1.46626 0.98914,-1.46626 0,0 3.1676,1.23352 3.1676,1.23352 0,0 -0.46548,1.62919 -0.46548,1.62919 0,0 9.07688,4.42206 9.07688,4.42206 0.0233,-1.26145 -0.29791,-1.35222 -1.39645,-1.86192 0,0 1.39645,-3.4911 1.39645,-3.4911 1.00543,0.18852 4.45465,1.56634 4.69902,2.58341 0.16525,0.68892 -0.93096,2.76961 -1.25912,3.46784 0,0 -2.37395,4.6548 -2.37395,4.6548 0,0 -2.22966,3.95659 -2.22966,3.95659 -1.26843,-0.25369 -2.35998,-0.96354 -3.4911,-1.571 -0.42824,-0.23041 -1.08225,-0.51435 -1.2056,-1.03802 -0.16757,-0.71451 0.96355,-2.53454 1.71297,-2.65091 0.60513,-0.0931 1.11948,0.29558 1.58729,0.60512 0,0 0.69822,-1.1637 0.69822,-1.1637 0,0 -9.07687,-4.65481 -9.07687,-4.65481 -0.97519,1.73392 -1.44998,1.19396 -3.95659,-0.23274 0,0 2.12725,-4.42207 2.12725,-4.42207 z M 10.03742,108.5734 c 0.356093,0.8914 1.682713,4.24984 2.418173,4.62455 0.654,0.33748 1.86425,-0.42358 2.469375,-0.72615 0,0 6.749472,-3.43292 6.749472,-3.43292 0,0 -2.327404,-4.88755 -2.327404,-4.88755 0,0 -9.309616,4.42207 -9.309616,4.42207 z m 55.624957,-1.73392 c -0.823901,-0.33747 -2.993042,-1.65943 -3.723846,-1.52212 -0.765716,0.1443 -3.167597,2.35068 -3.723847,3.0233 0,0 3.025625,-1.1637 3.025625,-1.1637 0.649346,2.45075 -2.359987,3.01399 -4.189327,3.46783 -1.079915,0.23274 -1.496521,0.67029 -2.327404,0 -1.198613,0.46548 -3.302586,1.67806 -4.189327,2.58342 1.813047,1.35455 6.24908,4.61757 8.378654,5.02719 1.054314,0.20249 3.372409,-0.4166 4.422068,-0.76106 3.700573,-1.21723 9.237467,-4.58266 10.473318,-8.45546 -2.690479,-0.2211 -5.653264,-1.18232 -8.145914,-2.1994 z m 65.865533,1.96666 c 0,0 1.16371,-1.39644 1.16371,-1.39644 0,0 8.37865,4.24751 8.37865,4.24751 0,0 3.72385,1.80374 3.72385,1.80374 0,0 -2.09467,3.95659 -2.09467,3.95659 0,0 -2.3274,-0.93097 -2.3274,-0.93097 0.47944,0.74477 2.04579,1.81538 2.879,1.06596 0.32118,-0.2886 1.23352,-1.98063 1.50816,-2.4624 0.78899,-1.38248 2.65324,-5.09236 3.06053,-6.51673 0,0 -2.79288,-0.93096 -2.79288,-0.93096 0.40729,0.40962 1.39411,1.03104 1.53376,1.44532 0.128,0.37936 -0.70986,3.71686 -2.23664,3.32586 0,0 -11.16688,-5.4694 -11.16688,-5.4694 0,0 0.23274,-1.86193 0.23274,-1.86193 -0.917,0.91933 -1.6222,2.45076 -1.86193,3.72385 z m -34.678321,-0.50272 c -0.79597,-0.58418 -2.97907,-2.55549 -3.72384,-2.74168 -0.84718,-0.20947 -2.84176,1.01475 -3.72385,1.38015 -1.75486,0.72848 -3.7285,1.35688 -5.58577,1.7665 0,0 -2.792885,0.56323 -2.792885,0.56323 1.875885,3.82625 6.635425,7.45002 10.706055,8.67656 0.95191,0.28627 3.00701,0.80761 3.95659,0.69124 1.12646,-0.13964 3.84254,-1.7502 4.887551,-2.38559 1.28938,-0.78433 3.25836,-1.91545 3.95659,-3.25836 -2.07838,-1.00079 -5.818511,-3.32121 -7.680441,-4.69205 z m -56.788657,4.45931 c 0.488755,0.24903 1.079916,0.4841 1.356877,0.99147 0.262997,0.48177 0.04422,1.26378 0.984492,1.71064 0.679602,0.40265 1.39877,0.15594 2.080699,0 1.580307,-0.51435 3.502743,-1.56867 4.887549,-2.46937 0,0 -3.714537,-3.95659 -3.714537,-3.95659 0,0 -2.569454,-3.02562 -2.569454,-3.02562 -1.051987,1.06362 -2.739355,5.22269 -3.025626,6.74947 z m 71.684048,-5.81851 c 0,0 -5.81851,6.28399 -5.81851,6.28399 1.8852,1.11948 3.90538,2.07139 6.05125,2.56014 -0.27696,-1.65944 -0.0675,-2.12957 1.39644,-3.02562 0,0 -0.23274,-0.93096 -0.23274,-0.93096 0,0 0.93096,-0.23274 0.93096,-0.23274 -0.0954,-1.69901 -1.01009,-3.2188 -1.86192,-4.65481 0,0 -0.46548,0 -0.46548,0 z m 20.01567,5.58577 c 0,0 -0.93096,1.39644 -0.93096,1.39644 0,0 8.14592,6.28399 8.14592,6.28399 0,0 0.46548,-0.93096 0.46548,-0.93096 0,0 2.79288,1.86192 2.79288,1.86192 -0.74244,1.94339 -3.80996,5.72774 -5.21804,7.4477 -0.46315,0.56555 -1.51747,2.02018 -2.23198,2.11561 -0.80761,0.10706 -3.34448,-2.24828 -4.187,-2.81384 0,0 1.86193,-2.79288 1.86193,-2.79288 0.38169,0.1699 1.27541,0.70753 1.61987,0.69124 0.75408,-0.0303 2.07372,-1.80141 1.83399,-2.54385 -0.24437,-0.75874 -1.81537,-1.77581 -2.5229,-2.10398 0,0 -0.93096,1.62919 -0.93096,1.62919 -1.30568,-0.50971 -2.42051,-1.44532 -3.25837,-2.56015 1.56867,-1.75719 1.09155,-1.81537 -0.46548,-3.25836 0,0 -2.32741,3.02562 -2.32741,3.02562 0,0 1.16371,0.69822 1.16371,0.69822 -0.4585,1.34291 -1.19629,1.98295 -2.32741,2.79289 -0.66796,-0.61211 -3.23509,-2.57644 -3.41197,-3.2607 -0.1955,-0.75873 1.25447,-2.19008 1.73624,-2.79055 1.75719,-2.19242 3.60748,-4.50353 4.9341,-6.98222 1.40575,0.3817 2.11328,1.23818 3.25836,2.09467 z M 24.700065,111.59903 c 0,0 0.232741,0.23274 0.232741,0.23274 0,0 0,-0.23274 0,-0.23274 0,0 -0.232741,0 -0.232741,0 z m -0.698221,0.46548 c 0,0 0.232741,0.23274 0.232741,0.23274 0,0 0,-0.23274 0,-0.23274 0,0 -0.232741,0 -0.232741,0 z m 0.465481,1.86192 c 0.660983,-0.0209 0.598143,-0.0931 1.161375,-0.1955 0.9682,-0.17688 1.21025,0.42126 1.729261,1.12646 0,0 2.927874,3.72385 2.927874,3.72385 0,0 -3.025625,2.19241 -3.025625,2.19241 0,0 -1.619873,0.86347 -1.619873,0.86347 0,0 -1.405752,-0.96122 -1.405752,-0.96122 0,0 -0.232741,0.23274 -0.232741,0.23274 0,0 1.163702,1.62919 1.163702,1.62919 -1.321965,0.75873 -2.504287,1.75719 -3.723846,2.66953 -0.446862,0.33514 -1.308001,1.09388 -1.859596,1.12879 -0.709858,0.0442 -1.21956,-0.74477 -1.601254,-1.23818 -0.937944,-1.21956 -1.796756,-2.40654 -2.590401,-3.72385 0,0 1.396443,-1.1637 1.396443,-1.1637 -0.984492,0.0466 -2.266892,0.66564 -1.817703,1.86425 0.139644,0.37006 0.930962,1.47325 1.198613,1.8596 0.982165,1.41273 2.855725,4.16838 4.294061,4.88755 -0.116371,-0.61211 -0.428243,-1.2056 0,-1.79443 0.300235,-0.53996 2.227325,-1.88054 2.84176,-2.33206 0,0 4.887548,-3.75643 4.887548,-3.75643 0.425915,-0.32118 1.794429,-1.43368 2.229654,-1.52212 0.323509,-0.0652 1.121808,0.23739 1.494193,0.32816 0,0 -5.353029,-7.44769 -5.353029,-7.44769 0,0 -2.094664,1.62918 -2.094664,1.62918 z m 100.513605,3.95659 c -0.35377,0.46315 -1.32895,1.53376 -1.32197,2.08535 0.009,0.6796 0.85183,1.11017 1.35222,1.40575 0,0 -0.46781,-1.41739 -0.46781,-1.41739 0,0 1.02406,-1.60823 1.02406,-1.60823 0,0 2.93486,-3.72385 2.93486,-3.72385 0,0 2.79056,2.54153 2.79056,2.54153 0,0 0.94492,1.20326 0.94492,1.20326 0,0 -0.70986,1.60824 -0.70986,1.60824 0,0 2.09699,-0.65865 2.09699,-0.65865 0,0 1.8596,1.29403 1.8596,1.29403 0,0 3.25837,2.39025 3.25837,2.39025 -0.67961,1.31963 -2.06441,2.98606 -3.0233,4.187 -0.37006,0.46315 -0.75874,1.18697 -1.44066,0.93561 0,0 -1.82003,-1.16603 -1.82003,-1.16603 0.39798,1.34292 1.20559,1.8084 2.3274,2.56015 1.39877,-1.71064 4.95737,-5.79058 5.58577,-7.68044 0,0 -1.39644,0.93097 -1.39644,0.93097 -1.09388,-1.40343 -5.79757,-5.08538 -7.4477,-6.42597 -1.43368,-1.16603 -2.67884,-1.61987 -2.3274,-3.58187 -1.29171,0.67029 -3.23044,3.81694 -4.21958,5.12029 z m -72.352016,-2.6579 c -0.665637,-0.47013 -2.015532,-1.58962 -2.792885,-1.64547 -0.805281,-0.0582 -2.84176,1.23585 -3.723846,1.63616 -0.944926,0.42824 -2.192415,0.61444 -2.792885,1.5035 0.903033,0.44454 1.184649,0.72616 1.629183,1.62919 0,0 8.378654,0 8.378654,0 0,0 4.189328,-0.23274 4.189328,-0.23274 -1.456955,-0.64935 -3.572565,-1.962 -4.887549,-2.89064 z m 58.152516,1.0613 c 0,0 -1.36386,-0.85416 -1.36386,-0.85416 0,0 -4.18932,-1.68504 -4.18932,-1.68504 0,0 -2.79289,1.79908 -2.79289,1.79908 0,0 -5.353031,3.26768 -5.353031,3.26768 0,0 13.498951,-0.23274 13.498951,-0.23274 0,0 0.20015,-2.29482 0.20015,-2.29482 z m -40.10117,7.18237 c -1.126463,-2.48334 0.4841,-4.35225 2.895291,-4.92479 3.477142,-0.8239 6.85886,0.31187 10.007838,1.66642 0,0 -0.69822,1.62918 -0.69822,1.62918 -2.35068,-0.63305 -4.305699,-1.84563 -6.749474,-0.93096 2.006223,2.54618 6.449234,2.8022 7.771204,6.05125 1.03337,2.54386 -0.83554,4.3825 -3.116395,5.14589 -3.39801,1.1381 -7.203316,-0.39566 -10.240578,-1.88752 0,0 0.698221,-1.86192 0.698221,-1.86192 2.562472,1.10318 4.633861,2.07604 7.447693,1.1637 -1.913126,-2.38792 -6.458546,-2.61368 -8.01558,-6.05125 z m 47.58145,-0.47014 c 0.40497,-0.36773 0.97286,-1.0194 1.58962,-0.84717 0.58185,0.16059 1.79675,1.65245 1.87588,2.24827 0.0535,0.43755 -0.25135,0.81459 0,1.39644 0.22809,0.52599 3.37707,3.80996 3.98219,4.42207 1.93408,1.95967 1.85262,2.58342 3.25837,1.62918 -0.34911,-0.31885 -0.78201,-0.66796 -0.87278,-1.16836 -0.14662,-0.79597 1.26611,-2.2762 2.03648,-2.2762 0.45384,0 0.8495,0.38403 1.1637,0.66564 0.58651,0.52599 2.45309,2.28784 2.54851,3.01166 0.0745,0.57022 -0.35144,1.00777 -0.70055,1.39644 0,0 -2.84409,2.67885 -2.84409,2.67885 0,0 -4.12416,3.68195 -4.12416,3.68195 -0.49573,0.38402 -1.1893,0.98449 -1.86192,0.78433 -0.72848,-0.21412 -1.83632,-1.66176 -2.36464,-2.25758 -0.72848,-0.82157 -1.04035,-1.01242 -1.35921,-2.09466 2.25526,-1.42437 2.11794,-1.98993 3.95659,-0.23274 0,0 0.69822,-0.46548 0.69822,-0.46548 -1.31265,-1.88985 -2.82081,-3.26768 -4.42207,-4.88755 0,0 -1.90148,-2.02717 -1.90148,-2.02717 -0.82623,-0.65167 -1.12181,-0.13499 -1.82236,-0.37006 -0.80761,-0.26998 -1.834,-1.57099 -2.32741,-2.25758 0,0 3.49111,-3.03028 3.49111,-3.03028 z m -94.492606,11.86511 c -0.525994,-0.50272 -2.038806,-1.93175 -2.262237,-2.55084 -0.07913,-0.25834 -0.09077,-0.43522 0,-0.69822 0.181537,-0.59814 2.588073,-3.26069 3.193198,-3.41197 0.877432,-0.22111 2.399554,1.39644 2.318095,2.24827 -0.0512,0.53996 -0.605125,0.98216 -0.414278,1.62918 0.207139,0.70055 1.487211,1.95735 2.285511,1.65013 0.53763,-0.20947 1.298691,-1.20094 1.69435,-1.65013 0,0 2.969767,-3.25836 2.969767,-3.25836 0.414278,-0.43523 1.410407,-1.32662 1.536087,-1.86193 0.256015,-0.68658 -0.346783,-1.045 0,-1.86192 0.246705,-0.7727 1.494194,-2.12958 2.411191,-1.82469 0.418933,0.13965 1.468592,1.0869 1.861923,1.41739 0.60047,0.5004 2.746337,2.0039 2.746337,2.74401 0,0.76572 -1.543069,2.17147 -2.280856,2.25759 -0.535303,0.0628 -0.85183,-0.32817 -1.629183,0.16291 0,0 -3.258366,3.3887 -3.258366,3.3887 -0.598143,0.60047 -2.806849,2.66721 -2.785902,3.47016 0.01164,0.45152 0.397986,0.68659 0.691239,0.95191 0,0 -2.094664,2.79289 -2.094664,2.79289 -1.731589,-0.67728 -5.511293,-4.187 -6.982212,-5.59508 z m 93.096166,-8.36935 c 0.4841,-0.10939 1.15439,-0.3654 1.62918,-0.20015 0.66098,0.23041 1.96666,1.7246 2.46239,2.29482 0,0 3.91935,4.18932 3.91935,4.18932 0.44221,0.5097 2.0551,2.07605 2.18311,2.55782 0.2211,0.81925 -1.98062,2.66022 -2.74634,2.5904 -0.40497,-0.0349 -1.48256,-0.90303 -2.09466,-1.19163 0.38867,0.72382 1.18697,2.00157 2.09466,2.08768 0.60745,0.0582 1.20094,-0.5353 1.62918,-0.89372 0,0 3.23742,-2.79289 3.23742,-2.79289 0.51436,-0.47711 2.4461,-2.26223 2.54153,-2.84408 0.17921,-1.07294 -1.17301,-1.83167 -2.0551,-1.84098 0,0 1.62918,1.86192 1.62918,1.86192 0,0 -3.25836,3.02563 -3.25836,3.02563 -0.97053,-1.36153 -4.75722,-5.45078 -6.05125,-6.74947 -1.42903,-1.43601 -2.84642,-2.26922 -2.56015,-4.42207 -1.11948,0.52599 -1.9364,1.25912 -2.56014,2.3274 z m -79.36681,0.27231 c 0,0 -2.492649,2.75332 -2.492649,2.75332 0,0 -6.581899,6.98221 -6.581899,6.98221 0,0 -3.025625,-3.02795 -3.025625,-3.02795 0,0 -1.15672,-1.62686 -1.15672,-1.62686 0,0 0.691239,-1.62918 0.691239,-1.62918 -0.674947,0.31885 -1.715297,0.92631 -1.626856,1.82003 0.05818,0.57021 1.245162,1.56867 1.666422,1.97364 1.445318,1.3848 3.214145,3.3887 5.080723,4.1195 -0.795972,-2.17147 -0.393332,-1.77348 2.073717,-4.42207 0,0 6.537678,-6.98221 6.537678,-6.98221 0,0 1.163702,0.69822 1.163702,0.69822 -0.553922,-1.11715 -1.319638,-1.62918 -2.329732,-2.3274 0,0 0,1.66875 0,1.66875 z m 10.010165,10.66649 c 2.218016,0.014 2.0807,0.77037 3.095448,3.02563 0,0 3.421284,7.68043 3.421284,7.68043 0,0 3.183888,-7.44769 3.183888,-7.44769 1.114827,-2.98839 0.916998,-3.2444 2.867362,-3.25139 0,0 3.7029,0 3.7029,0 0.428243,0.0279 1.142756,0.0396 1.429026,0.40963 0.372385,0.4841 0.221104,3.47248 0.221104,4.2382 0,0 -1.861924,0 -1.861924,0 0,0 0.465481,12.56798 0.465481,12.56798 0,0 1.396443,-0.23274 1.396443,-0.23274 0,0 0.23274,4.88755 0.23274,4.88755 0,0 -7.214953,0 -7.214953,0 -0.472463,-0.002 -1.26378,0.0698 -1.598926,-0.3654 -0.404968,-0.62142 -0.13499,-3.69359 0,-4.52215 0,0 1.366186,0 1.366186,0 0,0 0.23274,-3.95659 0.23274,-3.95659 0,0 -1.63151,3.25837 -1.63151,3.25837 0,0 -2.325076,5.35303 -2.325076,5.35303 0,0 -0.465481,0 -0.465481,0 0,0 -2.844088,-6.05125 -2.844088,-6.05125 0,0 -1.57798,-3.02563 -1.57798,-3.02563 0,3.53766 -0.400314,4.34294 1.861923,4.42207 0.181538,1.26611 0.25136,1.96666 0.232741,3.25837 -0.0256,1.53841 -0.384022,1.60823 -1.861924,1.62918 0,0 -3.723846,0 -3.723846,0 0,0 -3.491106,-0.23274 -3.491106,-0.23274 0,0 0,-4.88755 0,-4.88755 0,0 2.094663,0 2.094663,0 0,0 0,-12.33524 0,-12.33524 -0.453843,-0.002 -1.331275,0.0605 -1.689695,-0.23041 -0.623744,-0.50505 -0.404968,-3.34681 -0.404968,-4.19166 0,0 4.887548,0 4.887548,0 z m 41.893274,0.23274 c 0,0 0,6.28399 0,6.28399 -0.0116,0.57254 0.0116,1.27309 -0.53763,1.6385 -0.49574,0.29558 -1.24283,0.0815 -1.78977,0 0,0 -2.79289,0 -2.79289,0 0,0 0,-3.26768 0,-3.26768 0,0 -5.120288,-0.23274 -5.120288,-0.23274 0,0 0,12.56798 0,12.56798 2.211034,0.0721 1.463937,1.13577 1.422044,2.79289 -0.01164,0.52366 0.144299,1.30567 -0.218776,1.72228 -0.335147,0.38634 -0.970528,0.36307 -1.436009,0.37238 0,0 -5.353029,0 -5.353029,0 -0.453844,-0.009 -1.077588,0.0233 -1.391788,-0.37238 -0.395658,-0.5004 -0.237395,-3.70989 -0.237395,-4.51517 0,0 1.396443,0 1.396443,0 0,0 0,-12.56798 0,-12.56798 -0.342129,-0.0279 -0.737788,-0.009 -1.024058,-0.2374 -0.586506,-0.46548 -0.372385,-3.3724 -0.372385,-4.18467 0,0 17.455531,0 17.455531,0 z m 5.35768,0.3817 c 0,0 2.55549,-0.14896 2.55549,-0.14896 0,0 5.818511,0 5.818511,0 0,0 0,4.65481 0,4.65481 -2.32275,-0.25601 -1.86192,0.67029 -1.86192,5.35303 0,0 5.12029,0 5.12029,0 0,0 0.23274,-5.35303 0.23274,-5.35303 0,0 -1.15905,-0.37238 -1.15905,-0.37238 0,0 -0.23739,-4.28243 -0.23739,-4.28243 0,0 6.51673,0 6.51673,0 0,0 1.62453,0.37239 1.62453,0.37239 0,0 0.23739,4.28242 0.23739,4.28242 0,0 -1.62918,0 -1.62918,0 0,0 0,6.51673 0,6.51673 0,0 -0.23274,3.49111 -0.23274,3.49111 -0.0256,2.33671 0.50039,3.93098 -1.06828,5.81851 -0.33515,0.40031 -0.81226,0.97751 -1.26145,1.23585 -0.8402,0.4841 -4.24519,0.16525 -5.3507,0.16059 0,0 -7.913181,0 -7.913181,0 0,0 0,-4.88755 0,-4.88755 0,0 10.007841,0.23274 10.007841,0.23274 0,0 0.23274,-2.3274 0.23274,-2.3274 0,0 -5.35303,-0.2118 -5.35303,-0.2118 -0.69589,-0.0489 -1.975971,0.0535 -2.560141,-0.16059 -0.70521,-0.25834 -2.32741,-1.76184 -2.62066,-2.46006 -0.19085,-0.44919 -0.1699,-1.10319 -0.17223,-1.58962 0,0 0.22343,-3.02562 0.22343,-3.02562 0,0 0,-3.02563 0,-3.02563 0,0 -1.38713,0 -1.38713,0 0,0 0.23739,-4.27311 0.23739,-4.27311 z M 44.483,139.76062 c 0,0 2.055098,0.77037 2.055098,0.77037 0,0 0.272306,4.34991 0.272306,4.34991 0,0 0,11.17154 0,11.17154 0,0 -2.327404,0.23274 -2.327404,0.23274 0,0 0,0.69823 0,0.69823 0,0 5.353029,0 5.353029,0 0,0 0,-0.69823 0,-0.69823 -2.306457,-0.0815 -1.827012,-0.99612 -1.861923,-3.95658 0,0 -0.23274,-3.02563 -0.23274,-3.02563 -0.01862,-1.73624 -0.181538,-5.98841 0.23274,-7.44769 0,0 4.128815,9.30962 4.128815,9.30962 0,0 2.155176,4.18932 2.155176,4.18932 0,0 6.283991,-13.49894 6.283991,-13.49894 0,0 0,12.33524 0,12.33524 -0.01396,1.98062 -0.432897,2.07604 -2.327404,2.09466 0,0 0.53763,0.79132 0.53763,0.79132 0,0 5.28088,0.13965 5.28088,0.13965 -0.53763,-1.53842 -1.4523,-0.5004 -2.11561,-1.30335 -0.330491,-0.39799 -0.216449,-1.44066 -0.211794,-1.95502 0,0 0,-11.40428 0,-11.40428 0.0023,-1.71995 -0.03724,-2.25991 1.861923,-2.3274 -0.100078,-0.14896 -0.07913,-0.26998 -0.35842,-0.47479 -0.532975,-0.36308 -2.457739,-0.40963 -2.986059,0 -0.300235,0.21877 -0.495737,0.61676 -0.667965,0.94492 0,0 -3.82858,8.374 -3.82858,8.374 -0.614435,1.34291 -0.78899,2.76263 -2.166813,3.49111 0,0 -5.81851,-13.26621 -5.81851,-13.26621 -1.10319,0 -2.336714,-0.21179 -3.258366,0.46549 z m 42.824239,0.17222 c -0.37239,-0.46315 -1.31964,-0.40264 -1.86193,-0.40497 0,0 -7.21495,0 -7.21495,0 -1.419716,0 -3.065191,-0.1536 -4.422068,0.23275 0.679602,0.90536 1.212578,0.65865 2.327404,0.93096 -0.386349,1.35687 -0.23274,3.00235 -0.23274,4.42206 0,0 0,7.4477 0,7.4477 0,2.48567 0.507374,4.32431 -2.094664,3.72384 0,0 0.148954,0.92631 0.148954,0.92631 0,0 1.71297,0.2374 1.71297,0.2374 0,0 3.723846,0 3.723846,0 -0.549267,-1.571 -1.547724,-0.48178 -2.4205,-1.33593 -0.444534,-0.4329 -0.381694,-1.34292 -0.370057,-1.92244 0,0 0.230413,-4.65481 0.230413,-4.65481 0,0 0,-7.21495 0,-7.21495 0.03491,-1.89683 0.647018,-1.8596 2.327404,-1.86192 0,0 7.214948,0 7.214948,0 0,0 0,3.02562 0,3.02562 0,0 0.93097,0 0.93097,0 0.0372,-0.80063 0.47246,-2.96977 0,-3.55162 z m 8.84413,-0.17222 c 0,0 0,0.69822 0,0.69822 0,0 2.09467,0.23274 2.09467,0.23274 0,0 0,7.44769 0,7.44769 0.002,0.46781 -0.0279,1.15672 0.23739,1.55703 0.52367,0.79132 2.613681,0.76805 3.486451,0.77037 0,0 4.88755,0 4.88755,0 0.5516,0.009 1.29869,-0.009 1.72228,0.40497 0.45152,0.44221 0.37006,1.3336 0.37238,1.92244 0.002,1.30102 0.41428,3.40499 -1.16835,3.90771 -0.41195,0.0675 -1.17767,0.0489 -1.62453,0 0,0 -6.283991,-0.16292 -6.283991,-0.16292 -1.07061,-0.0512 -1.70599,-0.20016 -2.09467,0.91002 0,0 3.491111,0.23274 3.491111,0.23274 0,0 4.42207,0 4.42207,0 0.92165,0 2.47636,0.14197 3.22345,-0.40497 0.8239,-0.60047 0.73081,-1.48489 0.73314,-2.38792 0,0 0.23274,-14.19716 0.23274,-14.19716 0,0 2.09466,-0.23274 2.09466,-0.23274 0,0 -0.56091,-0.56556 -0.56091,-0.56556 0,0 -4.79212,-0.13266 -4.79212,-0.13266 0,0 0,0.93096 0,0.93096 0,0 1.92244,0.37238 1.92244,0.37238 0,0 0.40496,1.72228 0.40496,1.72228 0,0 0,6.74947 0,6.74947 0,0 -2.79288,0 -2.79288,0 0,0 -4.42207,-0.23274 -4.42207,-0.23274 -0.65633,0 -1.699,0.0721 -2.206381,-0.40497 -0.54228,-0.50737 -0.35376,-1.90149 -0.35376,-2.62065 0.002,-1.94804 -0.11172,-3.89608 0.23274,-5.81851 0,0 2.094661,0 2.094661,0 0,0 0,-0.46548 0,-0.46548 0,0 -5.353031,-0.23274 -5.353031,-0.23274 z"
     inkscape:connector-curvature="0"
     style="fill:#474a4f;stroke:#000000;stroke-width:0.2327404" />
</svg>
